solid OpenSCAD_Model
  facet normal 0.0980165 0 -0.995185
    outer loop
      vertex -7.74777 -5 21.2456
      vertex -7.5 4.72289e-15 21.27
      vertex -7.5 -5 21.27
    endloop
  endfacet
  facet normal 0.0980165 0 -0.995185
    outer loop
      vertex -7.5 4.72289e-15 21.27
      vertex -7.74777 -5 21.2456
      vertex -7.74777 4.71747e-15 21.2456
    endloop
  endfacet
  facet normal 0.0980165 0 0.995185
    outer loop
      vertex -7.74777 4.16431e-15 18.7544
      vertex -7.5 -5 18.73
      vertex -7.5 4.1589e-15 18.73
    endloop
  endfacet
  facet normal 0.0980165 0 0.995185
    outer loop
      vertex -7.5 -5 18.73
      vertex -7.74777 4.16431e-15 18.7544
      vertex -7.74777 -5 18.7544
    endloop
  endfacet
  facet normal 0.995185 -0 0.0980161
    outer loop
      vertex -8.77 -5 20
      vertex -8.7456 4.38588e-15 19.7522
      vertex -8.77 4.44089e-15 20
    endloop
  endfacet
  facet normal 0.995185 0 0.0980161
    outer loop
      vertex -8.7456 4.38588e-15 19.7522
      vertex -8.77 -5 20
      vertex -8.7456 -5 19.7522
    endloop
  endfacet
  facet normal 0.77301 0 -0.634393
    outer loop
      vertex -8.39803 -5 20.898
      vertex -8.55597 4.59756e-15 20.7056
      vertex -8.39803 4.64029e-15 20.898
    endloop
  endfacet
  facet normal 0.77301 0 -0.634393
    outer loop
      vertex -8.55597 4.59756e-15 20.7056
      vertex -8.39803 -5 20.898
      vertex -8.55597 -5 20.7056
    endloop
  endfacet
  facet normal 0.634391 0 0.773012
    outer loop
      vertex -8.39803 4.24149e-15 19.102
      vertex -8.20557 -5 18.944
      vertex -8.20557 4.20642e-15 18.944
    endloop
  endfacet
  facet normal 0.634391 0 0.773012
    outer loop
      vertex -8.20557 -5 18.944
      vertex -8.39803 4.24149e-15 19.102
      vertex -8.39803 -5 19.102
    endloop
  endfacet
  facet normal 0.881922 -0 0.471395
    outer loop
      vertex -8.67333 -5 19.514
      vertex -8.55597 4.28422e-15 19.2944
      vertex -8.67333 4.33298e-15 19.514
    endloop
  endfacet
  facet normal 0.881922 0 0.471395
    outer loop
      vertex -8.55597 4.28422e-15 19.2944
      vertex -8.67333 -5 19.514
      vertex -8.55597 -5 19.2944
    endloop
  endfacet
  facet normal 0.471398 0 -0.881921
    outer loop
      vertex -8.20557 -5 21.056
      vertex -7.98601 4.70142e-15 21.1733
      vertex -7.98601 -5 21.1733
    endloop
  endfacet
  facet normal 0.471398 0 -0.881921
    outer loop
      vertex -7.98601 4.70142e-15 21.1733
      vertex -8.20557 -5 21.056
      vertex -8.20557 4.67536e-15 21.056
    endloop
  endfacet
  facet normal 0.290282 0 -0.956941
    outer loop
      vertex -7.98601 -5 21.1733
      vertex -7.74777 4.71747e-15 21.2456
      vertex -7.74777 -5 21.2456
    endloop
  endfacet
  facet normal 0.290282 0 -0.956941
    outer loop
      vertex -7.74777 4.71747e-15 21.2456
      vertex -7.98601 -5 21.1733
      vertex -7.98601 4.70142e-15 21.1733
    endloop
  endfacet
  facet normal 0.634391 0 -0.773012
    outer loop
      vertex -8.39803 -5 20.898
      vertex -8.20557 4.67536e-15 21.056
      vertex -8.20557 -5 21.056
    endloop
  endfacet
  facet normal 0.634391 0 -0.773012
    outer loop
      vertex -8.20557 4.67536e-15 21.056
      vertex -8.39803 -5 20.898
      vertex -8.39803 4.64029e-15 20.898
    endloop
  endfacet
  facet normal 0.95694 0 -0.290285
    outer loop
      vertex -8.67333 -5 20.486
      vertex -8.7456 4.49591e-15 20.2478
      vertex -8.67333 4.54881e-15 20.486
    endloop
  endfacet
  facet normal 0.95694 0 -0.290285
    outer loop
      vertex -8.7456 4.49591e-15 20.2478
      vertex -8.67333 -5 20.486
      vertex -8.7456 -5 20.2478
    endloop
  endfacet
  facet normal 0.995185 0 -0.0980169
    outer loop
      vertex -8.7456 -5 20.2478
      vertex -8.77 4.44089e-15 20
      vertex -8.7456 4.49591e-15 20.2478
    endloop
  endfacet
  facet normal 0.995185 0 -0.0980169
    outer loop
      vertex -8.77 4.44089e-15 20
      vertex -8.7456 -5 20.2478
      vertex -8.77 -5 20
    endloop
  endfacet
  facet normal 0.881922 0 -0.471395
    outer loop
      vertex -8.55597 -5 20.7056
      vertex -8.67333 4.54881e-15 20.486
      vertex -8.55597 4.59756e-15 20.7056
    endloop
  endfacet
  facet normal 0.881922 0 -0.471395
    outer loop
      vertex -8.67333 4.54881e-15 20.486
      vertex -8.55597 -5 20.7056
      vertex -8.67333 -5 20.486
    endloop
  endfacet
  facet normal 0.471398 0 0.881921
    outer loop
      vertex -8.20557 4.20642e-15 18.944
      vertex -7.98601 -5 18.8267
      vertex -7.98601 4.18036e-15 18.8267
    endloop
  endfacet
  facet normal 0.471398 0 0.881921
    outer loop
      vertex -7.98601 -5 18.8267
      vertex -8.20557 4.20642e-15 18.944
      vertex -8.20557 -5 18.944
    endloop
  endfacet
  facet normal 0.290282 0 0.956941
    outer loop
      vertex -7.98601 4.18036e-15 18.8267
      vertex -7.74777 -5 18.7544
      vertex -7.74777 4.16431e-15 18.7544
    endloop
  endfacet
  facet normal 0.290282 0 0.956941
    outer loop
      vertex -7.74777 -5 18.7544
      vertex -7.98601 4.18036e-15 18.8267
      vertex -7.98601 -5 18.8267
    endloop
  endfacet
  facet normal 0.77301 -0 0.634393
    outer loop
      vertex -8.55597 -5 19.2944
      vertex -8.39803 4.24149e-15 19.102
      vertex -8.55597 4.28422e-15 19.2944
    endloop
  endfacet
  facet normal 0.77301 0 0.634393
    outer loop
      vertex -8.39803 4.24149e-15 19.102
      vertex -8.55597 -5 19.2944
      vertex -8.39803 -5 19.102
    endloop
  endfacet
  facet normal 0.95694 -0 0.290285
    outer loop
      vertex -8.7456 -5 19.7522
      vertex -8.67333 4.33298e-15 19.514
      vertex -8.7456 4.38588e-15 19.7522
    endloop
  endfacet
  facet normal 0.95694 0 0.290285
    outer loop
      vertex -8.67333 4.33298e-15 19.514
      vertex -8.7456 -5 19.7522
      vertex -8.67333 -5 19.514
    endloop
  endfacet
  facet normal -0.0980169 0 -0.995185
    outer loop
      vertex -7.5 -5 21.27
      vertex -7.25224 4.71747e-15 21.2456
      vertex -7.25224 -5 21.2456
    endloop
  endfacet
  facet normal -0.0980169 0 -0.995185
    outer loop
      vertex -7.25224 4.71747e-15 21.2456
      vertex -7.5 -5 21.27
      vertex -7.5 4.72289e-15 21.27
    endloop
  endfacet
  facet normal -0.471398 0 -0.881921
    outer loop
      vertex -7.01399 -5 21.1733
      vertex -6.79443 4.67536e-15 21.056
      vertex -6.79443 -5 21.056
    endloop
  endfacet
  facet normal -0.471398 0 -0.881921
    outer loop
      vertex -6.79443 4.67536e-15 21.056
      vertex -7.01399 -5 21.1733
      vertex -7.01399 4.70142e-15 21.1733
    endloop
  endfacet
  facet normal -0.995185 0 0.0980161
    outer loop
      vertex -6.2544 -5 19.7522
      vertex -6.23 4.44089e-15 20
      vertex -6.2544 4.38588e-15 19.7522
    endloop
  endfacet
  facet normal -0.995185 0 0.0980161
    outer loop
      vertex -6.23 4.44089e-15 20
      vertex -6.2544 -5 19.7522
      vertex -6.23 -5 20
    endloop
  endfacet
  facet normal -0.471398 0 0.881921
    outer loop
      vertex -7.01399 4.18036e-15 18.8267
      vertex -6.79443 -5 18.944
      vertex -6.79443 4.20642e-15 18.944
    endloop
  endfacet
  facet normal -0.471398 0 0.881921
    outer loop
      vertex -6.79443 -5 18.944
      vertex -7.01399 4.18036e-15 18.8267
      vertex -7.01399 -5 18.8267
    endloop
  endfacet
  facet normal -0.77301 0 -0.634393
    outer loop
      vertex -6.44403 -5 20.7056
      vertex -6.60197 4.64029e-15 20.898
      vertex -6.44403 4.59756e-15 20.7056
    endloop
  endfacet
  facet normal -0.77301 -0 -0.634393
    outer loop
      vertex -6.60197 4.64029e-15 20.898
      vertex -6.44403 -5 20.7056
      vertex -6.60197 -5 20.898
    endloop
  endfacet
  facet normal -0.634391 0 0.773012
    outer loop
      vertex -6.79443 4.20642e-15 18.944
      vertex -6.60197 -5 19.102
      vertex -6.60197 4.24149e-15 19.102
    endloop
  endfacet
  facet normal -0.634391 0 0.773012
    outer loop
      vertex -6.60197 -5 19.102
      vertex -6.79443 4.20642e-15 18.944
      vertex -6.79443 -5 18.944
    endloop
  endfacet
  facet normal -0.0980169 0 0.995185
    outer loop
      vertex -7.5 4.1589e-15 18.73
      vertex -7.25224 -5 18.7544
      vertex -7.25224 4.16431e-15 18.7544
    endloop
  endfacet
  facet normal -0.0980169 0 0.995185
    outer loop
      vertex -7.25224 -5 18.7544
      vertex -7.5 4.1589e-15 18.73
      vertex -7.5 -5 18.73
    endloop
  endfacet
  facet normal -0.290282 0 0.956941
    outer loop
      vertex -7.25224 4.16431e-15 18.7544
      vertex -7.01399 -5 18.8267
      vertex -7.01399 4.18036e-15 18.8267
    endloop
  endfacet
  facet normal -0.290282 0 0.956941
    outer loop
      vertex -7.01399 -5 18.8267
      vertex -7.25224 4.16431e-15 18.7544
      vertex -7.25224 -5 18.7544
    endloop
  endfacet
  facet normal -0.95694 0 -0.290285
    outer loop
      vertex -6.2544 -5 20.2478
      vertex -6.32667 4.54881e-15 20.486
      vertex -6.2544 4.49591e-15 20.2478
    endloop
  endfacet
  facet normal -0.95694 -0 -0.290285
    outer loop
      vertex -6.32667 4.54881e-15 20.486
      vertex -6.2544 -5 20.2478
      vertex -6.32667 -5 20.486
    endloop
  endfacet
  facet normal -0.634391 0 -0.773012
    outer loop
      vertex -6.79443 -5 21.056
      vertex -6.60197 4.64029e-15 20.898
      vertex -6.60197 -5 20.898
    endloop
  endfacet
  facet normal -0.634391 0 -0.773012
    outer loop
      vertex -6.60197 4.64029e-15 20.898
      vertex -6.79443 -5 21.056
      vertex -6.79443 4.67536e-15 21.056
    endloop
  endfacet
  facet normal -0.290282 0 -0.956941
    outer loop
      vertex -7.25224 -5 21.2456
      vertex -7.01399 4.70142e-15 21.1733
      vertex -7.01399 -5 21.1733
    endloop
  endfacet
  facet normal -0.290282 0 -0.956941
    outer loop
      vertex -7.01399 4.70142e-15 21.1733
      vertex -7.25224 -5 21.2456
      vertex -7.25224 4.71747e-15 21.2456
    endloop
  endfacet
  facet normal -0.995185 0 -0.0980169
    outer loop
      vertex -6.23 -5 20
      vertex -6.2544 4.49591e-15 20.2478
      vertex -6.23 4.44089e-15 20
    endloop
  endfacet
  facet normal -0.995185 -0 -0.0980169
    outer loop
      vertex -6.2544 4.49591e-15 20.2478
      vertex -6.23 -5 20
      vertex -6.2544 -5 20.2478
    endloop
  endfacet
  facet normal -0.95694 0 0.290285
    outer loop
      vertex -6.32667 -5 19.514
      vertex -6.2544 4.38588e-15 19.7522
      vertex -6.32667 4.33298e-15 19.514
    endloop
  endfacet
  facet normal -0.95694 0 0.290285
    outer loop
      vertex -6.2544 4.38588e-15 19.7522
      vertex -6.32667 -5 19.514
      vertex -6.2544 -5 19.7522
    endloop
  endfacet
  facet normal -0.77301 0 0.634393
    outer loop
      vertex -6.60197 -5 19.102
      vertex -6.44403 4.28422e-15 19.2944
      vertex -6.60197 4.24149e-15 19.102
    endloop
  endfacet
  facet normal -0.77301 0 0.634393
    outer loop
      vertex -6.44403 4.28422e-15 19.2944
      vertex -6.60197 -5 19.102
      vertex -6.44403 -5 19.2944
    endloop
  endfacet
  facet normal -0.881922 0 -0.471395
    outer loop
      vertex -6.32667 -5 20.486
      vertex -6.44403 4.59756e-15 20.7056
      vertex -6.32667 4.54881e-15 20.486
    endloop
  endfacet
  facet normal -0.881922 -0 -0.471395
    outer loop
      vertex -6.44403 4.59756e-15 20.7056
      vertex -6.32667 -5 20.486
      vertex -6.44403 -5 20.7056
    endloop
  endfacet
  facet normal -0.881922 0 0.471395
    outer loop
      vertex -6.44403 -5 19.2944
      vertex -6.32667 4.33298e-15 19.514
      vertex -6.44403 4.28422e-15 19.2944
    endloop
  endfacet
  facet normal -0.881922 0 0.471395
    outer loop
      vertex -6.32667 4.33298e-15 19.514
      vertex -6.44403 -5 19.2944
      vertex -6.32667 -5 19.514
    endloop
  endfacet
  facet normal 0.471398 0 -0.881921
    outer loop
      vertex 6.79443 -5 21.056
      vertex 7.01399 4.70142e-15 21.1733
      vertex 7.01399 -5 21.1733
    endloop
  endfacet
  facet normal 0.471398 0 -0.881921
    outer loop
      vertex 7.01399 4.70142e-15 21.1733
      vertex 6.79443 -5 21.056
      vertex 6.79443 4.67536e-15 21.056
    endloop
  endfacet
  facet normal 0.0980165 0 0.995185
    outer loop
      vertex 7.25223 4.16431e-15 18.7544
      vertex 7.5 -5 18.73
      vertex 7.5 4.1589e-15 18.73
    endloop
  endfacet
  facet normal 0.0980165 0 0.995185
    outer loop
      vertex 7.5 -5 18.73
      vertex 7.25223 4.16431e-15 18.7544
      vertex 7.25223 -5 18.7544
    endloop
  endfacet
  facet normal 0.634391 0 -0.773012
    outer loop
      vertex 6.60197 -5 20.898
      vertex 6.79443 4.67536e-15 21.056
      vertex 6.79443 -5 21.056
    endloop
  endfacet
  facet normal 0.634391 0 -0.773012
    outer loop
      vertex 6.79443 4.67536e-15 21.056
      vertex 6.60197 -5 20.898
      vertex 6.60197 4.64029e-15 20.898
    endloop
  endfacet
  facet normal 0.95694 0 -0.290285
    outer loop
      vertex 6.32667 -5 20.486
      vertex 6.2544 4.49591e-15 20.2478
      vertex 6.32667 4.54881e-15 20.486
    endloop
  endfacet
  facet normal 0.95694 0 -0.290285
    outer loop
      vertex 6.2544 4.49591e-15 20.2478
      vertex 6.32667 -5 20.486
      vertex 6.2544 -5 20.2478
    endloop
  endfacet
  facet normal 0.881922 -0 0.471395
    outer loop
      vertex 6.32667 -5 19.514
      vertex 6.44403 4.28422e-15 19.2944
      vertex 6.32667 4.33298e-15 19.514
    endloop
  endfacet
  facet normal 0.881922 0 0.471395
    outer loop
      vertex 6.44403 4.28422e-15 19.2944
      vertex 6.32667 -5 19.514
      vertex 6.44403 -5 19.2944
    endloop
  endfacet
  facet normal 0.290282 0 0.956941
    outer loop
      vertex 7.01399 4.18036e-15 18.8267
      vertex 7.25223 -5 18.7544
      vertex 7.25223 4.16431e-15 18.7544
    endloop
  endfacet
  facet normal 0.290282 0 0.956941
    outer loop
      vertex 7.25223 -5 18.7544
      vertex 7.01399 4.18036e-15 18.8267
      vertex 7.01399 -5 18.8267
    endloop
  endfacet
  facet normal -0.0980169 0 -0.995185
    outer loop
      vertex 7.5 -5 21.27
      vertex 7.74776 4.71747e-15 21.2456
      vertex 7.74776 -5 21.2456
    endloop
  endfacet
  facet normal -0.0980169 0 -0.995185
    outer loop
      vertex 7.74776 4.71747e-15 21.2456
      vertex 7.5 -5 21.27
      vertex 7.5 4.72289e-15 21.27
    endloop
  endfacet
  facet normal -0.95694 0 -0.290285
    outer loop
      vertex 8.7456 -5 20.2478
      vertex 8.67333 4.54881e-15 20.486
      vertex 8.7456 4.49591e-15 20.2478
    endloop
  endfacet
  facet normal -0.95694 -0 -0.290285
    outer loop
      vertex 8.67333 4.54881e-15 20.486
      vertex 8.7456 -5 20.2478
      vertex 8.67333 -5 20.486
    endloop
  endfacet
  facet normal 0.77301 0 -0.634393
    outer loop
      vertex 6.60197 -5 20.898
      vertex 6.44403 4.59756e-15 20.7056
      vertex 6.60197 4.64029e-15 20.898
    endloop
  endfacet
  facet normal 0.77301 0 -0.634393
    outer loop
      vertex 6.44403 4.59756e-15 20.7056
      vertex 6.60197 -5 20.898
      vertex 6.44403 -5 20.7056
    endloop
  endfacet
  facet normal 0.995185 -0 0.0980161
    outer loop
      vertex 6.23 -5 20
      vertex 6.2544 4.38588e-15 19.7522
      vertex 6.23 4.44089e-15 20
    endloop
  endfacet
  facet normal 0.995185 0 0.0980161
    outer loop
      vertex 6.2544 4.38588e-15 19.7522
      vertex 6.23 -5 20
      vertex 6.2544 -5 19.7522
    endloop
  endfacet
  facet normal 0.881922 0 -0.471395
    outer loop
      vertex 6.44403 -5 20.7056
      vertex 6.32667 4.54881e-15 20.486
      vertex 6.44403 4.59756e-15 20.7056
    endloop
  endfacet
  facet normal 0.881922 0 -0.471395
    outer loop
      vertex 6.32667 4.54881e-15 20.486
      vertex 6.44403 -5 20.7056
      vertex 6.32667 -5 20.486
    endloop
  endfacet
  facet normal 0.471398 0 0.881921
    outer loop
      vertex 6.79443 4.20642e-15 18.944
      vertex 7.01399 -5 18.8267
      vertex 7.01399 4.18036e-15 18.8267
    endloop
  endfacet
  facet normal 0.471398 0 0.881921
    outer loop
      vertex 7.01399 -5 18.8267
      vertex 6.79443 4.20642e-15 18.944
      vertex 6.79443 -5 18.944
    endloop
  endfacet
  facet normal 0.77301 -0 0.634393
    outer loop
      vertex 6.44403 -5 19.2944
      vertex 6.60197 4.24149e-15 19.102
      vertex 6.44403 4.28422e-15 19.2944
    endloop
  endfacet
  facet normal 0.77301 0 0.634393
    outer loop
      vertex 6.60197 4.24149e-15 19.102
      vertex 6.44403 -5 19.2944
      vertex 6.60197 -5 19.102
    endloop
  endfacet
  facet normal 0.95694 -0 0.290285
    outer loop
      vertex 6.2544 -5 19.7522
      vertex 6.32667 4.33298e-15 19.514
      vertex 6.2544 4.38588e-15 19.7522
    endloop
  endfacet
  facet normal 0.95694 0 0.290285
    outer loop
      vertex 6.32667 4.33298e-15 19.514
      vertex 6.2544 -5 19.7522
      vertex 6.32667 -5 19.514
    endloop
  endfacet
  facet normal 0.634391 0 0.773012
    outer loop
      vertex 6.60197 4.24149e-15 19.102
      vertex 6.79443 -5 18.944
      vertex 6.79443 4.20642e-15 18.944
    endloop
  endfacet
  facet normal 0.634391 0 0.773012
    outer loop
      vertex 6.79443 -5 18.944
      vertex 6.60197 4.24149e-15 19.102
      vertex 6.60197 -5 19.102
    endloop
  endfacet
  facet normal 0.0980165 0 -0.995185
    outer loop
      vertex 7.25223 -5 21.2456
      vertex 7.5 4.72289e-15 21.27
      vertex 7.5 -5 21.27
    endloop
  endfacet
  facet normal 0.0980165 0 -0.995185
    outer loop
      vertex 7.5 4.72289e-15 21.27
      vertex 7.25223 -5 21.2456
      vertex 7.25223 4.71747e-15 21.2456
    endloop
  endfacet
  facet normal -0.77301 0 -0.634393
    outer loop
      vertex 8.55597 -5 20.7056
      vertex 8.39803 4.64029e-15 20.898
      vertex 8.55597 4.59756e-15 20.7056
    endloop
  endfacet
  facet normal -0.77301 -0 -0.634393
    outer loop
      vertex 8.39803 4.64029e-15 20.898
      vertex 8.55597 -5 20.7056
      vertex 8.39803 -5 20.898
    endloop
  endfacet
  facet normal -0.471398 0 -0.881921
    outer loop
      vertex 7.98601 -5 21.1733
      vertex 8.20557 4.67536e-15 21.056
      vertex 8.20557 -5 21.056
    endloop
  endfacet
  facet normal -0.471398 0 -0.881921
    outer loop
      vertex 8.20557 4.67536e-15 21.056
      vertex 7.98601 -5 21.1733
      vertex 7.98601 4.70142e-15 21.1733
    endloop
  endfacet
  facet normal -0.995185 0 0.0980161
    outer loop
      vertex 8.7456 -5 19.7522
      vertex 8.77 4.44089e-15 20
      vertex 8.7456 4.38588e-15 19.7522
    endloop
  endfacet
  facet normal -0.995185 0 0.0980161
    outer loop
      vertex 8.77 4.44089e-15 20
      vertex 8.7456 -5 19.7522
      vertex 8.77 -5 20
    endloop
  endfacet
  facet normal 0.290282 0 -0.956941
    outer loop
      vertex 7.01399 -5 21.1733
      vertex 7.25223 4.71747e-15 21.2456
      vertex 7.25223 -5 21.2456
    endloop
  endfacet
  facet normal 0.290282 0 -0.956941
    outer loop
      vertex 7.25223 4.71747e-15 21.2456
      vertex 7.01399 -5 21.1733
      vertex 7.01399 4.70142e-15 21.1733
    endloop
  endfacet
  facet normal 0.995185 0 -0.0980169
    outer loop
      vertex 6.2544 -5 20.2478
      vertex 6.23 4.44089e-15 20
      vertex 6.2544 4.49591e-15 20.2478
    endloop
  endfacet
  facet normal 0.995185 0 -0.0980169
    outer loop
      vertex 6.23 4.44089e-15 20
      vertex 6.2544 -5 20.2478
      vertex 6.23 -5 20
    endloop
  endfacet
  facet normal -0.0980169 0 0.995185
    outer loop
      vertex 7.5 4.1589e-15 18.73
      vertex 7.74776 -5 18.7544
      vertex 7.74776 4.16431e-15 18.7544
    endloop
  endfacet
  facet normal -0.0980169 0 0.995185
    outer loop
      vertex 7.74776 -5 18.7544
      vertex 7.5 4.1589e-15 18.73
      vertex 7.5 -5 18.73
    endloop
  endfacet
  facet normal -0.634391 0 0.773012
    outer loop
      vertex 8.20557 4.20642e-15 18.944
      vertex 8.39803 -5 19.102
      vertex 8.39803 4.24149e-15 19.102
    endloop
  endfacet
  facet normal -0.634391 0 0.773012
    outer loop
      vertex 8.39803 -5 19.102
      vertex 8.20557 4.20642e-15 18.944
      vertex 8.20557 -5 18.944
    endloop
  endfacet
  facet normal -0.290282 0 -0.956941
    outer loop
      vertex 7.74776 -5 21.2456
      vertex 7.98601 4.70142e-15 21.1733
      vertex 7.98601 -5 21.1733
    endloop
  endfacet
  facet normal -0.290282 0 -0.956941
    outer loop
      vertex 7.98601 4.70142e-15 21.1733
      vertex 7.74776 -5 21.2456
      vertex 7.74776 4.71747e-15 21.2456
    endloop
  endfacet
  facet normal -0.95694 0 0.290285
    outer loop
      vertex 8.67333 -5 19.514
      vertex 8.7456 4.38588e-15 19.7522
      vertex 8.67333 4.33298e-15 19.514
    endloop
  endfacet
  facet normal -0.95694 0 0.290285
    outer loop
      vertex 8.7456 4.38588e-15 19.7522
      vertex 8.67333 -5 19.514
      vertex 8.7456 -5 19.7522
    endloop
  endfacet
  facet normal -0.995185 0 -0.0980169
    outer loop
      vertex 8.77 -5 20
      vertex 8.7456 4.49591e-15 20.2478
      vertex 8.77 4.44089e-15 20
    endloop
  endfacet
  facet normal -0.995185 -0 -0.0980169
    outer loop
      vertex 8.7456 4.49591e-15 20.2478
      vertex 8.77 -5 20
      vertex 8.7456 -5 20.2478
    endloop
  endfacet
  facet normal -0.471398 0 0.881921
    outer loop
      vertex 7.98601 4.18036e-15 18.8267
      vertex 8.20557 -5 18.944
      vertex 8.20557 4.20642e-15 18.944
    endloop
  endfacet
  facet normal -0.471398 0 0.881921
    outer loop
      vertex 8.20557 -5 18.944
      vertex 7.98601 4.18036e-15 18.8267
      vertex 7.98601 -5 18.8267
    endloop
  endfacet
  facet normal -0.290282 0 0.956941
    outer loop
      vertex 7.74776 4.16431e-15 18.7544
      vertex 7.98601 -5 18.8267
      vertex 7.98601 4.18036e-15 18.8267
    endloop
  endfacet
  facet normal -0.290282 0 0.956941
    outer loop
      vertex 7.98601 -5 18.8267
      vertex 7.74776 4.16431e-15 18.7544
      vertex 7.74776 -5 18.7544
    endloop
  endfacet
  facet normal -0.77301 0 0.634393
    outer loop
      vertex 8.39803 -5 19.102
      vertex 8.55597 4.28422e-15 19.2944
      vertex 8.39803 4.24149e-15 19.102
    endloop
  endfacet
  facet normal -0.77301 0 0.634393
    outer loop
      vertex 8.55597 4.28422e-15 19.2944
      vertex 8.39803 -5 19.102
      vertex 8.55597 -5 19.2944
    endloop
  endfacet
  facet normal -0.881922 0 -0.471395
    outer loop
      vertex 8.67333 -5 20.486
      vertex 8.55597 4.59756e-15 20.7056
      vertex 8.67333 4.54881e-15 20.486
    endloop
  endfacet
  facet normal -0.881922 -0 -0.471395
    outer loop
      vertex 8.55597 4.59756e-15 20.7056
      vertex 8.67333 -5 20.486
      vertex 8.55597 -5 20.7056
    endloop
  endfacet
  facet normal -0.634391 0 -0.773012
    outer loop
      vertex 8.20557 -5 21.056
      vertex 8.39803 4.64029e-15 20.898
      vertex 8.39803 -5 20.898
    endloop
  endfacet
  facet normal -0.634391 0 -0.773012
    outer loop
      vertex 8.39803 4.64029e-15 20.898
      vertex 8.20557 -5 21.056
      vertex 8.20557 4.67536e-15 21.056
    endloop
  endfacet
  facet normal -0.881922 0 0.471395
    outer loop
      vertex 8.55597 -5 19.2944
      vertex 8.67333 4.33298e-15 19.514
      vertex 8.55597 4.28422e-15 19.2944
    endloop
  endfacet
  facet normal -0.881922 0 0.471395
    outer loop
      vertex 8.67333 4.33298e-15 19.514
      vertex 8.55597 -5 19.2944
      vertex 8.67333 -5 19.514
    endloop
  endfacet
  facet normal -1 0 0
    outer loop
      vertex -15 -5 1.11022e-15
      vertex -15 6.66134e-15 30
      vertex -15 0 0
    endloop
  endfacet
  facet normal -1 -0 0
    outer loop
      vertex -15 6.66134e-15 30
      vertex -15 -5 1.11022e-15
      vertex -15 -5 30
    endloop
  endfacet
  facet normal 0 -1 0
    outer loop
      vertex -12.5 -5 5
      vertex 12.5 -5 7.5
      vertex -12.5 -5 7.5
    endloop
  endfacet
  facet normal 0 -1 -0
    outer loop
      vertex 12.5 -5 7.5
      vertex -12.5 -5 5
      vertex 12.5 -5 5
    endloop
  endfacet
  facet normal 0 -1 0
    outer loop
      vertex -15 -5 30
      vertex -7.01399 -5 21.1733
      vertex 15 -5 30
    endloop
  endfacet
  facet normal 0 -1 0
    outer loop
      vertex 15 -5 30
      vertex 7.25223 -5 21.2456
      vertex 7.5 -5 21.27
    endloop
  endfacet
  facet normal 0 -1 0
    outer loop
      vertex 7.01399 -5 21.1733
      vertex 15 -5 30
      vertex -7.01399 -5 21.1733
    endloop
  endfacet
  facet normal 0 -1 0
    outer loop
      vertex 15 -5 30
      vertex 7.01399 -5 21.1733
      vertex 7.25223 -5 21.2456
    endloop
  endfacet
  facet normal 0 -1 0
    outer loop
      vertex -6.79443 -5 21.056
      vertex 7.01399 -5 21.1733
      vertex -7.01399 -5 21.1733
    endloop
  endfacet
  facet normal 0 -1 0
    outer loop
      vertex -6.79443 -5 21.056
      vertex 6.79443 -5 21.056
      vertex 7.01399 -5 21.1733
    endloop
  endfacet
  facet normal 0 -1 0
    outer loop
      vertex -6.60197 -5 20.898
      vertex 6.79443 -5 21.056
      vertex -6.79443 -5 21.056
    endloop
  endfacet
  facet normal 0 -1 0
    outer loop
      vertex -6.60197 -5 20.898
      vertex 6.60197 -5 20.898
      vertex 6.79443 -5 21.056
    endloop
  endfacet
  facet normal 0 -1 0
    outer loop
      vertex -6.44403 -5 20.7056
      vertex 6.60197 -5 20.898
      vertex -6.60197 -5 20.898
    endloop
  endfacet
  facet normal 0 -1 0
    outer loop
      vertex -6.44403 -5 20.7056
      vertex 6.44403 -5 20.7056
      vertex 6.60197 -5 20.898
    endloop
  endfacet
  facet normal 0 -1 0
    outer loop
      vertex -6.32667 -5 20.486
      vertex 6.44403 -5 20.7056
      vertex -6.44403 -5 20.7056
    endloop
  endfacet
  facet normal 0 -1 0
    outer loop
      vertex -6.32667 -5 20.486
      vertex 6.32667 -5 20.486
      vertex 6.44403 -5 20.7056
    endloop
  endfacet
  facet normal 0 -1 0
    outer loop
      vertex -6.2544 -5 20.2478
      vertex 6.32667 -5 20.486
      vertex -6.32667 -5 20.486
    endloop
  endfacet
  facet normal 0 -1 0
    outer loop
      vertex -6.2544 -5 20.2478
      vertex 6.2544 -5 20.2478
      vertex 6.32667 -5 20.486
    endloop
  endfacet
  facet normal 0 -1 0
    outer loop
      vertex -6.23 -5 20
      vertex 6.2544 -5 20.2478
      vertex -6.2544 -5 20.2478
    endloop
  endfacet
  facet normal 0 -1 0
    outer loop
      vertex -6.23 -5 20
      vertex 6.23 -5 20
      vertex 6.2544 -5 20.2478
    endloop
  endfacet
  facet normal 0 -1 0
    outer loop
      vertex -6.2544 -5 19.7522
      vertex 6.23 -5 20
      vertex -6.23 -5 20
    endloop
  endfacet
  facet normal 0 -1 0
    outer loop
      vertex -6.2544 -5 19.7522
      vertex 6.2544 -5 19.7522
      vertex 6.23 -5 20
    endloop
  endfacet
  facet normal 0 -1 0
    outer loop
      vertex -6.32667 -5 19.514
      vertex 6.2544 -5 19.7522
      vertex -6.2544 -5 19.7522
    endloop
  endfacet
  facet normal 0 -1 0
    outer loop
      vertex -6.32667 -5 19.514
      vertex 6.32667 -5 19.514
      vertex 6.2544 -5 19.7522
    endloop
  endfacet
  facet normal 0 -1 0
    outer loop
      vertex -6.44403 -5 19.2944
      vertex 6.32667 -5 19.514
      vertex -6.32667 -5 19.514
    endloop
  endfacet
  facet normal 0 -1 0
    outer loop
      vertex -6.44403 -5 19.2944
      vertex 6.44403 -5 19.2944
      vertex 6.32667 -5 19.514
    endloop
  endfacet
  facet normal 0 -1 0
    outer loop
      vertex -6.60197 -5 19.102
      vertex 6.44403 -5 19.2944
      vertex -6.44403 -5 19.2944
    endloop
  endfacet
  facet normal 0 -1 0
    outer loop
      vertex -6.60197 -5 19.102
      vertex 6.60197 -5 19.102
      vertex 6.44403 -5 19.2944
    endloop
  endfacet
  facet normal 0 -1 0
    outer loop
      vertex -6.79443 -5 18.944
      vertex 6.60197 -5 19.102
      vertex -6.60197 -5 19.102
    endloop
  endfacet
  facet normal 0 -1 0
    outer loop
      vertex -6.79443 -5 18.944
      vertex 6.79443 -5 18.944
      vertex 6.60197 -5 19.102
    endloop
  endfacet
  facet normal 0 -1 0
    outer loop
      vertex -12.5 -5 7.5
      vertex -6.79443 -5 18.944
      vertex -7.01399 -5 18.8267
    endloop
  endfacet
  facet normal 0 -1 -0
    outer loop
      vertex -6.79443 -5 18.944
      vertex -12.5 -5 7.5
      vertex 6.79443 -5 18.944
    endloop
  endfacet
  facet normal 0 -1 0
    outer loop
      vertex -12.5 -5 7.5
      vertex -7.01399 -5 18.8267
      vertex -7.25224 -5 18.7544
    endloop
  endfacet
  facet normal 0 -1 0
    outer loop
      vertex 12.5 -5 7.5
      vertex 6.79443 -5 18.944
      vertex -12.5 -5 7.5
    endloop
  endfacet
  facet normal 0 -1 0
    outer loop
      vertex -12.5 -5 7.5
      vertex -7.25224 -5 18.7544
      vertex -7.5 -5 18.73
    endloop
  endfacet
  facet normal 0 -1 0
    outer loop
      vertex 6.79443 -5 18.944
      vertex 12.5 -5 7.5
      vertex 7.01399 -5 18.8267
    endloop
  endfacet
  facet normal 0 -1 0
    outer loop
      vertex -7.25224 -5 21.2456
      vertex -15 -5 30
      vertex -7.5 -5 21.27
    endloop
  endfacet
  facet normal 0 -1 0
    outer loop
      vertex -15 -5 30
      vertex -7.74777 -5 21.2456
      vertex -7.5 -5 21.27
    endloop
  endfacet
  facet normal 0 -1 0
    outer loop
      vertex -15 -5 30
      vertex -7.98601 -5 21.1733
      vertex -7.74777 -5 21.2456
    endloop
  endfacet
  facet normal 0 -1 0
    outer loop
      vertex -15 -5 30
      vertex -8.20557 -5 21.056
      vertex -7.98601 -5 21.1733
    endloop
  endfacet
  facet normal 0 -1 0
    outer loop
      vertex -15 -5 30
      vertex -8.39803 -5 20.898
      vertex -8.20557 -5 21.056
    endloop
  endfacet
  facet normal 0 -1 0
    outer loop
      vertex -15 -5 30
      vertex -8.55597 -5 20.7056
      vertex -8.39803 -5 20.898
    endloop
  endfacet
  facet normal 0 -1 0
    outer loop
      vertex -15 -5 30
      vertex -8.67333 -5 20.486
      vertex -8.55597 -5 20.7056
    endloop
  endfacet
  facet normal 0 -1 0
    outer loop
      vertex -15 -5 30
      vertex -8.7456 -5 20.2478
      vertex -8.67333 -5 20.486
    endloop
  endfacet
  facet normal 0 -1 0
    outer loop
      vertex -15 -5 30
      vertex -8.77 -5 20
      vertex -8.7456 -5 20.2478
    endloop
  endfacet
  facet normal 0 -1 0
    outer loop
      vertex -15 -5 7.5
      vertex -8.77 -5 20
      vertex -15 -5 30
    endloop
  endfacet
  facet normal 0 -1 -0
    outer loop
      vertex -8.77 -5 20
      vertex -15 -5 7.5
      vertex -8.7456 -5 19.7522
    endloop
  endfacet
  facet normal 0 -1 -0
    outer loop
      vertex -8.7456 -5 19.7522
      vertex -15 -5 7.5
      vertex -8.67333 -5 19.514
    endloop
  endfacet
  facet normal 0 -1 -0
    outer loop
      vertex -7.74777 -5 18.7544
      vertex -12.5 -5 7.5
      vertex -7.5 -5 18.73
    endloop
  endfacet
  facet normal 0 -1 -0
    outer loop
      vertex -7.98601 -5 18.8267
      vertex -12.5 -5 7.5
      vertex -7.74777 -5 18.7544
    endloop
  endfacet
  facet normal 0 -1 -0
    outer loop
      vertex -8.20557 -5 18.944
      vertex -12.5 -5 7.5
      vertex -7.98601 -5 18.8267
    endloop
  endfacet
  facet normal 0 -1 -0
    outer loop
      vertex -8.39803 -5 19.102
      vertex -12.5 -5 7.5
      vertex -8.20557 -5 18.944
    endloop
  endfacet
  facet normal 0 -1 0
    outer loop
      vertex -12.5 -5 7.5
      vertex -8.39803 -5 19.102
      vertex -15 -5 7.5
    endloop
  endfacet
  facet normal 0 -1 -0
    outer loop
      vertex -8.55597 -5 19.2944
      vertex -15 -5 7.5
      vertex -8.39803 -5 19.102
    endloop
  endfacet
  facet normal 0 -1 -0
    outer loop
      vertex -8.67333 -5 19.514
      vertex -15 -5 7.5
      vertex -8.55597 -5 19.2944
    endloop
  endfacet
  facet normal 0 -1 0
    outer loop
      vertex -7.01399 -5 21.1733
      vertex -15 -5 30
      vertex -7.25224 -5 21.2456
    endloop
  endfacet
  facet normal 0 -1 0
    outer loop
      vertex 7.74776 -5 21.2456
      vertex 15 -5 30
      vertex 7.5 -5 21.27
    endloop
  endfacet
  facet normal 0 -1 0
    outer loop
      vertex 7.98601 -5 21.1733
      vertex 15 -5 30
      vertex 7.74776 -5 21.2456
    endloop
  endfacet
  facet normal 0 -1 0
    outer loop
      vertex 8.20557 -5 21.056
      vertex 15 -5 30
      vertex 7.98601 -5 21.1733
    endloop
  endfacet
  facet normal 0 -1 0
    outer loop
      vertex 8.39803 -5 20.898
      vertex 15 -5 30
      vertex 8.20557 -5 21.056
    endloop
  endfacet
  facet normal 0 -1 0
    outer loop
      vertex 8.55597 -5 20.7056
      vertex 15 -5 30
      vertex 8.39803 -5 20.898
    endloop
  endfacet
  facet normal 0 -1 0
    outer loop
      vertex 8.67333 -5 20.486
      vertex 15 -5 30
      vertex 8.55597 -5 20.7056
    endloop
  endfacet
  facet normal 0 -1 0
    outer loop
      vertex 8.7456 -5 20.2478
      vertex 15 -5 30
      vertex 8.67333 -5 20.486
    endloop
  endfacet
  facet normal 0 -1 0
    outer loop
      vertex 8.77 -5 20
      vertex 15 -5 30
      vertex 8.7456 -5 20.2478
    endloop
  endfacet
  facet normal 0 -1 0
    outer loop
      vertex 15 -5 7.5
      vertex 8.77 -5 20
      vertex 8.7456 -5 19.7522
    endloop
  endfacet
  facet normal 0 -1 0
    outer loop
      vertex 15 -5 7.5
      vertex 8.7456 -5 19.7522
      vertex 8.67333 -5 19.514
    endloop
  endfacet
  facet normal 0 -1 0
    outer loop
      vertex 15 -5 7.5
      vertex 8.67333 -5 19.514
      vertex 8.55597 -5 19.2944
    endloop
  endfacet
  facet normal 0 -1 0
    outer loop
      vertex 7.01399 -5 18.8267
      vertex 12.5 -5 7.5
      vertex 7.25223 -5 18.7544
    endloop
  endfacet
  facet normal 0 -1 0
    outer loop
      vertex 7.25223 -5 18.7544
      vertex 12.5 -5 7.5
      vertex 7.5 -5 18.73
    endloop
  endfacet
  facet normal 0 -1 0
    outer loop
      vertex 7.5 -5 18.73
      vertex 12.5 -5 7.5
      vertex 7.74776 -5 18.7544
    endloop
  endfacet
  facet normal 0 -1 0
    outer loop
      vertex 7.74776 -5 18.7544
      vertex 12.5 -5 7.5
      vertex 7.98601 -5 18.8267
    endloop
  endfacet
  facet normal 0 -1 0
    outer loop
      vertex 7.98601 -5 18.8267
      vertex 12.5 -5 7.5
      vertex 8.20557 -5 18.944
    endloop
  endfacet
  facet normal 0 -1 0
    outer loop
      vertex 12.5 -5 7.5
      vertex 8.39803 -5 19.102
      vertex 8.20557 -5 18.944
    endloop
  endfacet
  facet normal 0 -1 0
    outer loop
      vertex 15 -5 7.5
      vertex 8.39803 -5 19.102
      vertex 12.5 -5 7.5
    endloop
  endfacet
  facet normal 0 -1 0
    outer loop
      vertex 8.39803 -5 19.102
      vertex 15 -5 7.5
      vertex 8.55597 -5 19.2944
    endloop
  endfacet
  facet normal 0 -1 0
    outer loop
      vertex 8.77 -5 20
      vertex 15 -5 7.5
      vertex 15 -5 30
    endloop
  endfacet
  facet normal 0 0 0
    outer loop
      vertex -15 -5 30
      vertex -15 -5 1.11022e-15
      vertex -15 -5 7.5
    endloop
  endfacet
  facet normal 1 0 0
    outer loop
      vertex 15 -5 7.5
      vertex 15 6.66134e-15 30
      vertex 15 -5 30
    endloop
  endfacet
  facet normal 1 0 0
    outer loop
      vertex 15 6.66134e-15 30
      vertex 15 -5 7.5
      vertex 15 0 0
    endloop
  endfacet
  facet normal 1 0 0
    outer loop
      vertex 15 -16 0
      vertex 15 -5 7.5
      vertex 15 -16 7.5
    endloop
  endfacet
  facet normal 1 0 0
    outer loop
      vertex 15 -5 7.5
      vertex 15 -16 0
      vertex 15 0 0
    endloop
  endfacet
  facet normal 1 -0 0
    outer loop
      vertex 15 -90 7.5
      vertex 15 -80 0
      vertex 15 -80 7.5
    endloop
  endfacet
  facet normal 1 0 0
    outer loop
      vertex 15 -80 0
      vertex 15 -90 7.5
      vertex 15 -90 0
    endloop
  endfacet
  facet normal 1 -0 0
    outer loop
      vertex 15 -26 7.5
      vertex 15 -20 0
      vertex 15 -20 7.5
    endloop
  endfacet
  facet normal 1 0 0
    outer loop
      vertex 15 -20 0
      vertex 15 -26 7.5
      vertex 15 -26 0
    endloop
  endfacet
  facet normal 1 -0 0
    outer loop
      vertex 15 -36 7.5
      vertex 15 -30 0
      vertex 15 -30 7.5
    endloop
  endfacet
  facet normal 1 0 0
    outer loop
      vertex 15 -30 0
      vertex 15 -36 7.5
      vertex 15 -36 0
    endloop
  endfacet
  facet normal 1 -0 0
    outer loop
      vertex 15 -46 7.5
      vertex 15 -40 0
      vertex 15 -40 7.5
    endloop
  endfacet
  facet normal 1 0 0
    outer loop
      vertex 15 -40 0
      vertex 15 -46 7.5
      vertex 15 -46 0
    endloop
  endfacet
  facet normal 1 -0 0
    outer loop
      vertex 15 -56 7.5
      vertex 15 -50 0
      vertex 15 -50 7.5
    endloop
  endfacet
  facet normal 1 0 0
    outer loop
      vertex 15 -50 0
      vertex 15 -56 7.5
      vertex 15 -56 0
    endloop
  endfacet
  facet normal 1 -0 0
    outer loop
      vertex 15 -66 7.5
      vertex 15 -60 0
      vertex 15 -60 7.5
    endloop
  endfacet
  facet normal 1 0 0
    outer loop
      vertex 15 -60 0
      vertex 15 -66 7.5
      vertex 15 -66 0
    endloop
  endfacet
  facet normal 1 -0 0
    outer loop
      vertex 15 -76 7.5
      vertex 15 -70 0
      vertex 15 -70 7.5
    endloop
  endfacet
  facet normal 1 0 0
    outer loop
      vertex 15 -70 0
      vertex 15 -76 7.5
      vertex 15 -76 0
    endloop
  endfacet
  facet normal -0 0 1
    outer loop
      vertex -15 6.66134e-15 30
      vertex 15 -5 30
      vertex 15 6.66134e-15 30
    endloop
  endfacet
  facet normal 0 0 1
    outer loop
      vertex 15 -5 30
      vertex -15 6.66134e-15 30
      vertex -15 -5 30
    endloop
  endfacet
  facet normal 0 1 -2.22045e-16
    outer loop
      vertex 15 6.66134e-15 30
      vertex 7.01399 4.70142e-15 21.1733
      vertex -15 6.66134e-15 30
    endloop
  endfacet
  facet normal 0 1 -2.22045e-16
    outer loop
      vertex -15 6.66134e-15 30
      vertex -7.25224 4.71747e-15 21.2456
      vertex -7.5 4.72289e-15 21.27
    endloop
  endfacet
  facet normal 0 1 -2.22045e-16
    outer loop
      vertex -7.01399 4.70142e-15 21.1733
      vertex -15 6.66134e-15 30
      vertex 7.01399 4.70142e-15 21.1733
    endloop
  endfacet
  facet normal 0 1 -2.22045e-16
    outer loop
      vertex -15 6.66134e-15 30
      vertex -7.01399 4.70142e-15 21.1733
      vertex -7.25224 4.71747e-15 21.2456
    endloop
  endfacet
  facet normal 0 1 -2.22045e-16
    outer loop
      vertex 6.79443 4.67536e-15 21.056
      vertex -7.01399 4.70142e-15 21.1733
      vertex 7.01399 4.70142e-15 21.1733
    endloop
  endfacet
  facet normal 0 1 -2.22045e-16
    outer loop
      vertex 6.79443 4.67536e-15 21.056
      vertex -6.79443 4.67536e-15 21.056
      vertex -7.01399 4.70142e-15 21.1733
    endloop
  endfacet
  facet normal 0 1 -2.22045e-16
    outer loop
      vertex 6.60197 4.64029e-15 20.898
      vertex -6.79443 4.67536e-15 21.056
      vertex 6.79443 4.67536e-15 21.056
    endloop
  endfacet
  facet normal 0 1 -2.22045e-16
    outer loop
      vertex 6.60197 4.64029e-15 20.898
      vertex -6.60197 4.64029e-15 20.898
      vertex -6.79443 4.67536e-15 21.056
    endloop
  endfacet
  facet normal 0 1 -2.22045e-16
    outer loop
      vertex 6.44403 4.59756e-15 20.7056
      vertex -6.60197 4.64029e-15 20.898
      vertex 6.60197 4.64029e-15 20.898
    endloop
  endfacet
  facet normal 0 1 -2.22045e-16
    outer loop
      vertex 6.44403 4.59756e-15 20.7056
      vertex -6.44403 4.59756e-15 20.7056
      vertex -6.60197 4.64029e-15 20.898
    endloop
  endfacet
  facet normal 0 1 -2.22045e-16
    outer loop
      vertex 6.32667 4.54881e-15 20.486
      vertex -6.44403 4.59756e-15 20.7056
      vertex 6.44403 4.59756e-15 20.7056
    endloop
  endfacet
  facet normal 0 1 -2.22045e-16
    outer loop
      vertex 6.32667 4.54881e-15 20.486
      vertex -6.32667 4.54881e-15 20.486
      vertex -6.44403 4.59756e-15 20.7056
    endloop
  endfacet
  facet normal 0 1 -2.22045e-16
    outer loop
      vertex 6.2544 4.49591e-15 20.2478
      vertex -6.32667 4.54881e-15 20.486
      vertex 6.32667 4.54881e-15 20.486
    endloop
  endfacet
  facet normal 0 1 -2.22045e-16
    outer loop
      vertex 6.2544 4.49591e-15 20.2478
      vertex -6.2544 4.49591e-15 20.2478
      vertex -6.32667 4.54881e-15 20.486
    endloop
  endfacet
  facet normal 0 1 -2.22045e-16
    outer loop
      vertex 6.23 4.44089e-15 20
      vertex -6.2544 4.49591e-15 20.2478
      vertex 6.2544 4.49591e-15 20.2478
    endloop
  endfacet
  facet normal 0 1 -2.22045e-16
    outer loop
      vertex 6.23 4.44089e-15 20
      vertex -6.23 4.44089e-15 20
      vertex -6.2544 4.49591e-15 20.2478
    endloop
  endfacet
  facet normal 0 1 -2.22045e-16
    outer loop
      vertex 6.2544 4.38588e-15 19.7522
      vertex -6.23 4.44089e-15 20
      vertex 6.23 4.44089e-15 20
    endloop
  endfacet
  facet normal 0 1 -2.22045e-16
    outer loop
      vertex 6.2544 4.38588e-15 19.7522
      vertex -6.2544 4.38588e-15 19.7522
      vertex -6.23 4.44089e-15 20
    endloop
  endfacet
  facet normal 0 1 -2.22045e-16
    outer loop
      vertex 6.32667 4.33298e-15 19.514
      vertex -6.2544 4.38588e-15 19.7522
      vertex 6.2544 4.38588e-15 19.7522
    endloop
  endfacet
  facet normal 0 1 -2.22045e-16
    outer loop
      vertex 6.32667 4.33298e-15 19.514
      vertex -6.32667 4.33298e-15 19.514
      vertex -6.2544 4.38588e-15 19.7522
    endloop
  endfacet
  facet normal 0 1 -2.22045e-16
    outer loop
      vertex 6.44403 4.28422e-15 19.2944
      vertex -6.32667 4.33298e-15 19.514
      vertex 6.32667 4.33298e-15 19.514
    endloop
  endfacet
  facet normal 0 1 -2.22045e-16
    outer loop
      vertex 6.44403 4.28422e-15 19.2944
      vertex -6.44403 4.28422e-15 19.2944
      vertex -6.32667 4.33298e-15 19.514
    endloop
  endfacet
  facet normal 0 1 -2.22045e-16
    outer loop
      vertex 6.60197 4.24149e-15 19.102
      vertex -6.44403 4.28422e-15 19.2944
      vertex 6.44403 4.28422e-15 19.2944
    endloop
  endfacet
  facet normal 0 1 -2.22045e-16
    outer loop
      vertex 6.60197 4.24149e-15 19.102
      vertex -6.60197 4.24149e-15 19.102
      vertex -6.44403 4.28422e-15 19.2944
    endloop
  endfacet
  facet normal 0 1 -2.22045e-16
    outer loop
      vertex 6.79443 4.20642e-15 18.944
      vertex -6.60197 4.24149e-15 19.102
      vertex 6.60197 4.24149e-15 19.102
    endloop
  endfacet
  facet normal 0 1 -2.22045e-16
    outer loop
      vertex 6.79443 4.20642e-15 18.944
      vertex -6.79443 4.20642e-15 18.944
      vertex -6.60197 4.24149e-15 19.102
    endloop
  endfacet
  facet normal 0 1 -2.22045e-16
    outer loop
      vertex 7.01399 4.18036e-15 18.8267
      vertex -6.79443 4.20642e-15 18.944
      vertex 6.79443 4.20642e-15 18.944
    endloop
  endfacet
  facet normal 0 1 -2.22045e-16
    outer loop
      vertex 7.01399 4.18036e-15 18.8267
      vertex -7.01399 4.18036e-15 18.8267
      vertex -6.79443 4.20642e-15 18.944
    endloop
  endfacet
  facet normal 0 1 -2.22045e-16
    outer loop
      vertex 15 0 0
      vertex 7.01399 4.18036e-15 18.8267
      vertex 7.25223 4.16431e-15 18.7544
    endloop
  endfacet
  facet normal 0 1 -2.22045e-16
    outer loop
      vertex 7.01399 4.18036e-15 18.8267
      vertex 15 0 0
      vertex -7.01399 4.18036e-15 18.8267
    endloop
  endfacet
  facet normal 0 1 -2.22045e-16
    outer loop
      vertex 15 0 0
      vertex 7.25223 4.16431e-15 18.7544
      vertex 7.5 4.1589e-15 18.73
    endloop
  endfacet
  facet normal 0 1 -2.22045e-16
    outer loop
      vertex -15 0 0
      vertex -7.01399 4.18036e-15 18.8267
      vertex 15 0 0
    endloop
  endfacet
  facet normal 0 1 -2.22045e-16
    outer loop
      vertex 7.25223 4.71747e-15 21.2456
      vertex 15 6.66134e-15 30
      vertex 7.5 4.72289e-15 21.27
    endloop
  endfacet
  facet normal 0 1 -2.22045e-16
    outer loop
      vertex 15 6.66134e-15 30
      vertex 7.74776 4.71747e-15 21.2456
      vertex 7.5 4.72289e-15 21.27
    endloop
  endfacet
  facet normal 0 1 -2.22045e-16
    outer loop
      vertex 15 6.66134e-15 30
      vertex 7.98601 4.70142e-15 21.1733
      vertex 7.74776 4.71747e-15 21.2456
    endloop
  endfacet
  facet normal 0 1 -2.22045e-16
    outer loop
      vertex 15 6.66134e-15 30
      vertex 8.20557 4.67536e-15 21.056
      vertex 7.98601 4.70142e-15 21.1733
    endloop
  endfacet
  facet normal 0 1 -2.22045e-16
    outer loop
      vertex 15 6.66134e-15 30
      vertex 8.39803 4.64029e-15 20.898
      vertex 8.20557 4.67536e-15 21.056
    endloop
  endfacet
  facet normal 0 1 -2.22045e-16
    outer loop
      vertex 15 6.66134e-15 30
      vertex 8.55597 4.59756e-15 20.7056
      vertex 8.39803 4.64029e-15 20.898
    endloop
  endfacet
  facet normal 0 1 -2.22045e-16
    outer loop
      vertex 15 6.66134e-15 30
      vertex 8.67333 4.54881e-15 20.486
      vertex 8.55597 4.59756e-15 20.7056
    endloop
  endfacet
  facet normal 0 1 -2.22045e-16
    outer loop
      vertex 15 6.66134e-15 30
      vertex 8.7456 4.49591e-15 20.2478
      vertex 8.67333 4.54881e-15 20.486
    endloop
  endfacet
  facet normal 0 1 -2.22045e-16
    outer loop
      vertex 15 6.66134e-15 30
      vertex 8.77 4.44089e-15 20
      vertex 8.7456 4.49591e-15 20.2478
    endloop
  endfacet
  facet normal 0 1 -2.22045e-16
    outer loop
      vertex 15 6.66134e-15 30
      vertex 8.7456 4.38588e-15 19.7522
      vertex 8.77 4.44089e-15 20
    endloop
  endfacet
  facet normal 0 1 -2.22045e-16
    outer loop
      vertex 15 0 0
      vertex 8.7456 4.38588e-15 19.7522
      vertex 15 6.66134e-15 30
    endloop
  endfacet
  facet normal 0 1 -2.22045e-16
    outer loop
      vertex 8.7456 4.38588e-15 19.7522
      vertex 15 0 0
      vertex 8.67333 4.33298e-15 19.514
    endloop
  endfacet
  facet normal 0 1 -2.22045e-16
    outer loop
      vertex -7.01399 4.18036e-15 18.8267
      vertex -15 0 0
      vertex -7.25224 4.16431e-15 18.7544
    endloop
  endfacet
  facet normal 0 1 -2.22045e-16
    outer loop
      vertex 7.74776 4.16431e-15 18.7544
      vertex 15 0 0
      vertex 7.5 4.1589e-15 18.73
    endloop
  endfacet
  facet normal 0 1 -2.22045e-16
    outer loop
      vertex 7.98601 4.18036e-15 18.8267
      vertex 15 0 0
      vertex 7.74776 4.16431e-15 18.7544
    endloop
  endfacet
  facet normal 0 1 -2.22045e-16
    outer loop
      vertex 8.20557 4.20642e-15 18.944
      vertex 15 0 0
      vertex 7.98601 4.18036e-15 18.8267
    endloop
  endfacet
  facet normal 0 1 -2.22045e-16
    outer loop
      vertex 8.39803 4.24149e-15 19.102
      vertex 15 0 0
      vertex 8.20557 4.20642e-15 18.944
    endloop
  endfacet
  facet normal 0 1 -2.22045e-16
    outer loop
      vertex 8.55597 4.28422e-15 19.2944
      vertex 15 0 0
      vertex 8.39803 4.24149e-15 19.102
    endloop
  endfacet
  facet normal 0 1 -2.22045e-16
    outer loop
      vertex 8.67333 4.33298e-15 19.514
      vertex 15 0 0
      vertex 8.55597 4.28422e-15 19.2944
    endloop
  endfacet
  facet normal 0 1 -2.22045e-16
    outer loop
      vertex 7.01399 4.70142e-15 21.1733
      vertex 15 6.66134e-15 30
      vertex 7.25223 4.71747e-15 21.2456
    endloop
  endfacet
  facet normal 0 1 -2.22045e-16
    outer loop
      vertex -7.74777 4.71747e-15 21.2456
      vertex -15 6.66134e-15 30
      vertex -7.5 4.72289e-15 21.27
    endloop
  endfacet
  facet normal 0 1 -2.22045e-16
    outer loop
      vertex -7.98601 4.70142e-15 21.1733
      vertex -15 6.66134e-15 30
      vertex -7.74777 4.71747e-15 21.2456
    endloop
  endfacet
  facet normal 0 1 -2.22045e-16
    outer loop
      vertex -8.20557 4.67536e-15 21.056
      vertex -15 6.66134e-15 30
      vertex -7.98601 4.70142e-15 21.1733
    endloop
  endfacet
  facet normal 0 1 -2.22045e-16
    outer loop
      vertex -8.39803 4.64029e-15 20.898
      vertex -15 6.66134e-15 30
      vertex -8.20557 4.67536e-15 21.056
    endloop
  endfacet
  facet normal 0 1 -2.22045e-16
    outer loop
      vertex -8.55597 4.59756e-15 20.7056
      vertex -15 6.66134e-15 30
      vertex -8.39803 4.64029e-15 20.898
    endloop
  endfacet
  facet normal 0 1 -2.22045e-16
    outer loop
      vertex -8.67333 4.54881e-15 20.486
      vertex -15 6.66134e-15 30
      vertex -8.55597 4.59756e-15 20.7056
    endloop
  endfacet
  facet normal 0 1 -2.22045e-16
    outer loop
      vertex -8.7456 4.49591e-15 20.2478
      vertex -15 6.66134e-15 30
      vertex -8.67333 4.54881e-15 20.486
    endloop
  endfacet
  facet normal 0 1 -2.22045e-16
    outer loop
      vertex -8.77 4.44089e-15 20
      vertex -15 6.66134e-15 30
      vertex -8.7456 4.49591e-15 20.2478
    endloop
  endfacet
  facet normal 0 1 -2.22045e-16
    outer loop
      vertex -8.7456 4.38588e-15 19.7522
      vertex -15 6.66134e-15 30
      vertex -8.77 4.44089e-15 20
    endloop
  endfacet
  facet normal 0 1 -2.22045e-16
    outer loop
      vertex -15 0 0
      vertex -8.7456 4.38588e-15 19.7522
      vertex -8.67333 4.33298e-15 19.514
    endloop
  endfacet
  facet normal 0 1 -2.22045e-16
    outer loop
      vertex -15 0 0
      vertex -8.67333 4.33298e-15 19.514
      vertex -8.55597 4.28422e-15 19.2944
    endloop
  endfacet
  facet normal 0 1 -2.22045e-16
    outer loop
      vertex -7.25224 4.16431e-15 18.7544
      vertex -15 0 0
      vertex -7.5 4.1589e-15 18.73
    endloop
  endfacet
  facet normal 0 1 -2.22045e-16
    outer loop
      vertex -7.5 4.1589e-15 18.73
      vertex -15 0 0
      vertex -7.74777 4.16431e-15 18.7544
    endloop
  endfacet
  facet normal 0 1 -2.22045e-16
    outer loop
      vertex -7.74777 4.16431e-15 18.7544
      vertex -15 0 0
      vertex -7.98601 4.18036e-15 18.8267
    endloop
  endfacet
  facet normal 0 1 -2.22045e-16
    outer loop
      vertex -8.7456 4.38588e-15 19.7522
      vertex -15 0 0
      vertex -15 6.66134e-15 30
    endloop
  endfacet
  facet normal 0 1 -2.22045e-16
    outer loop
      vertex -8.39803 4.24149e-15 19.102
      vertex -15 0 0
      vertex -8.55597 4.28422e-15 19.2944
    endloop
  endfacet
  facet normal 0 1 -2.22045e-16
    outer loop
      vertex -8.20557 4.20642e-15 18.944
      vertex -15 0 0
      vertex -8.39803 4.24149e-15 19.102
    endloop
  endfacet
  facet normal 0 1 -2.22045e-16
    outer loop
      vertex -7.98601 4.18036e-15 18.8267
      vertex -15 0 0
      vertex -8.20557 4.20642e-15 18.944
    endloop
  endfacet
  facet normal -0 0 1
    outer loop
      vertex -12.5 -70 5
      vertex -4 -76 5
      vertex -4 -70 5
    endloop
  endfacet
  facet normal 0 0 1
    outer loop
      vertex -4 -76 5
      vertex -12.5 -70 5
      vertex -12.5 -76 5
    endloop
  endfacet
  facet normal -0 0 1
    outer loop
      vertex -12.5 -60 5
      vertex -4 -66 5
      vertex -4 -60 5
    endloop
  endfacet
  facet normal 0 0 1
    outer loop
      vertex -4 -66 5
      vertex -12.5 -60 5
      vertex -12.5 -66 5
    endloop
  endfacet
  facet normal -0 0 1
    outer loop
      vertex -12.5 -50 5
      vertex -4 -56 5
      vertex -4 -50 5
    endloop
  endfacet
  facet normal 0 0 1
    outer loop
      vertex -4 -56 5
      vertex -12.5 -50 5
      vertex -12.5 -56 5
    endloop
  endfacet
  facet normal 0 0 1
    outer loop
      vertex -4 -40 5
      vertex -12.5 -46 5
      vertex -4 -46 5
    endloop
  endfacet
  facet normal 0 -0 1
    outer loop
      vertex -12.5 -46 5
      vertex -4 -40 5
      vertex -12.5 -40 5
    endloop
  endfacet
  facet normal -0 0 1
    outer loop
      vertex -12.5 -30 5
      vertex -4 -36 5
      vertex -4 -30 5
    endloop
  endfacet
  facet normal 0 0 1
    outer loop
      vertex -4 -36 5
      vertex -12.5 -30 5
      vertex -12.5 -36 5
    endloop
  endfacet
  facet normal -0 0 1
    outer loop
      vertex -12.5 -20 5
      vertex -4 -26 5
      vertex -4 -20 5
    endloop
  endfacet
  facet normal 0 0 1
    outer loop
      vertex -4 -26 5
      vertex -12.5 -20 5
      vertex -12.5 -26 5
    endloop
  endfacet
  facet normal 0 0 1
    outer loop
      vertex 12.5 -5 5
      vertex 4.05 -16 5
      vertex 12.5 -16 5
    endloop
  endfacet
  facet normal 0 0 1
    outer loop
      vertex -4 -20 5
      vertex 4.05 -20 5
      vertex 4.05 -16 5
    endloop
  endfacet
  facet normal 0 0 1
    outer loop
      vertex 4.05 -20 5
      vertex -4 -20 5
      vertex 4.05 -26 5
    endloop
  endfacet
  facet normal 0 0 1
    outer loop
      vertex 4.05 -26 5
      vertex -4 -26 5
      vertex 4.05 -30 5
    endloop
  endfacet
  facet normal 0 0 1
    outer loop
      vertex -4 -30 5
      vertex 4.05 -30 5
      vertex -4 -26 5
    endloop
  endfacet
  facet normal 0 0 1
    outer loop
      vertex -4 -36 5
      vertex 4.05 -36 5
      vertex -4 -30 5
    endloop
  endfacet
  facet normal 0 0 1
    outer loop
      vertex 4.05 -36 5
      vertex -4 -36 5
      vertex 4.05 -40 5
    endloop
  endfacet
  facet normal 0 0 1
    outer loop
      vertex 4.05 -40 5
      vertex -4 -40 5
      vertex 4.05 -46 5
    endloop
  endfacet
  facet normal 0 0 1
    outer loop
      vertex -4 -46 5
      vertex 4.05 -46 5
      vertex -4 -40 5
    endloop
  endfacet
  facet normal 0 0 1
    outer loop
      vertex -4 -50 5
      vertex 4.05 -50 5
      vertex -4 -46 5
    endloop
  endfacet
  facet normal 0 0 1
    outer loop
      vertex 4.05 -50 5
      vertex -4 -50 5
      vertex 4.05 -56 5
    endloop
  endfacet
  facet normal 0 0 1
    outer loop
      vertex 4.05 -56 5
      vertex -4 -56 5
      vertex 4.05 -60 5
    endloop
  endfacet
  facet normal 0 0 1
    outer loop
      vertex -4 -60 5
      vertex 4.05 -60 5
      vertex -4 -56 5
    endloop
  endfacet
  facet normal 0 0 1
    outer loop
      vertex -4 -20 5
      vertex 4.05 -16 5
      vertex -4 -16 5
    endloop
  endfacet
  facet normal 0 0 1
    outer loop
      vertex 12.5 -5 5
      vertex -4 -16 5
      vertex 4.05 -16 5
    endloop
  endfacet
  facet normal -0 0 1
    outer loop
      vertex -12.5 -5 5
      vertex -4 -16 5
      vertex 12.5 -5 5
    endloop
  endfacet
  facet normal 0 0 1
    outer loop
      vertex -4 -16 5
      vertex -12.5 -5 5
      vertex -12.5 -16 5
    endloop
  endfacet
  facet normal -0 0 1
    outer loop
      vertex 4.05 -20 5
      vertex 12.5 -26 5
      vertex 12.5 -20 5
    endloop
  endfacet
  facet normal 0 0 1
    outer loop
      vertex 12.5 -26 5
      vertex 4.05 -20 5
      vertex 4.05 -26 5
    endloop
  endfacet
  facet normal -0 0 1
    outer loop
      vertex 4.05 -30 5
      vertex 12.5 -36 5
      vertex 12.5 -30 5
    endloop
  endfacet
  facet normal 0 0 1
    outer loop
      vertex 12.5 -36 5
      vertex 4.05 -30 5
      vertex 4.05 -36 5
    endloop
  endfacet
  facet normal -0 0 1
    outer loop
      vertex 4.05 -40 5
      vertex 12.5 -46 5
      vertex 12.5 -40 5
    endloop
  endfacet
  facet normal 0 0 1
    outer loop
      vertex 12.5 -46 5
      vertex 4.05 -40 5
      vertex 4.05 -46 5
    endloop
  endfacet
  facet normal -0 0 1
    outer loop
      vertex 4.05 -50 5
      vertex 12.5 -56 5
      vertex 12.5 -50 5
    endloop
  endfacet
  facet normal 0 0 1
    outer loop
      vertex 12.5 -56 5
      vertex 4.05 -50 5
      vertex 4.05 -56 5
    endloop
  endfacet
  facet normal -0 0 1
    outer loop
      vertex 4.05 -60 5
      vertex 12.5 -66 5
      vertex 12.5 -60 5
    endloop
  endfacet
  facet normal 0 0 1
    outer loop
      vertex 12.5 -66 5
      vertex 4.05 -60 5
      vertex 4.05 -66 5
    endloop
  endfacet
  facet normal -0 0 1
    outer loop
      vertex 4.05 -70 5
      vertex 12.5 -76 5
      vertex 12.5 -70 5
    endloop
  endfacet
  facet normal 0 0 1
    outer loop
      vertex 12.5 -76 5
      vertex 4.05 -70 5
      vertex 4.05 -76 5
    endloop
  endfacet
  facet normal -0 0 1
    outer loop
      vertex 4.05 -80 5
      vertex 12.5 -90 5
      vertex 12.5 -80 5
    endloop
  endfacet
  facet normal 0 0 1
    outer loop
      vertex 4.05 -26 5
      vertex -4 -20 5
      vertex -4 -26 5
    endloop
  endfacet
  facet normal 0 0 1
    outer loop
      vertex 4.05 -30 5
      vertex -4 -30 5
      vertex 4.05 -36 5
    endloop
  endfacet
  facet normal 0 0 1
    outer loop
      vertex -4 -40 5
      vertex 4.05 -40 5
      vertex -4 -36 5
    endloop
  endfacet
  facet normal 0 0 1
    outer loop
      vertex 4.05 -46 5
      vertex -4 -46 5
      vertex 4.05 -50 5
    endloop
  endfacet
  facet normal 0 0 1
    outer loop
      vertex -4 -56 5
      vertex 4.05 -56 5
      vertex -4 -50 5
    endloop
  endfacet
  facet normal 0 0 1
    outer loop
      vertex 4.05 -60 5
      vertex -4 -60 5
      vertex 4.05 -66 5
    endloop
  endfacet
  facet normal 0 0 1
    outer loop
      vertex -4 -66 5
      vertex 4.05 -66 5
      vertex -4 -60 5
    endloop
  endfacet
  facet normal 0 0 1
    outer loop
      vertex 4.05 -66 5
      vertex -4 -66 5
      vertex 4.05 -70 5
    endloop
  endfacet
  facet normal 0 0 1
    outer loop
      vertex -4 -70 5
      vertex 4.05 -70 5
      vertex -4 -66 5
    endloop
  endfacet
  facet normal 0 0 1
    outer loop
      vertex 4.05 -70 5
      vertex -4 -70 5
      vertex 4.05 -76 5
    endloop
  endfacet
  facet normal 0 0 1
    outer loop
      vertex -4 -76 5
      vertex 4.05 -76 5
      vertex -4 -70 5
    endloop
  endfacet
  facet normal 0 0 1
    outer loop
      vertex 4.05 -76 5
      vertex -4 -76 5
      vertex 4.05 -80 5
    endloop
  endfacet
  facet normal 0 0 1
    outer loop
      vertex -4 -80 5
      vertex 4.05 -80 5
      vertex -4 -76 5
    endloop
  endfacet
  facet normal 0 0 1
    outer loop
      vertex 4.05 -80 5
      vertex -4 -80 5
      vertex 12.5 -90 5
    endloop
  endfacet
  facet normal 0 0 1
    outer loop
      vertex -12.5 -90 5
      vertex -4 -80 5
      vertex -12.5 -80 5
    endloop
  endfacet
  facet normal 0 0 1
    outer loop
      vertex -4 -80 5
      vertex -12.5 -90 5
      vertex 12.5 -90 5
    endloop
  endfacet
  facet normal 0 -1 0
    outer loop
      vertex -15 -90 7.5
      vertex -12.5 -90 5
      vertex -12.5 -90 7.5
    endloop
  endfacet
  facet normal 0 -1 -0
    outer loop
      vertex -12.5 -90 5
      vertex -15 -90 0
      vertex 12.5 -90 5
    endloop
  endfacet
  facet normal 0 -1 0
    outer loop
      vertex -15 -90 0
      vertex -12.5 -90 5
      vertex -15 -90 7.5
    endloop
  endfacet
  facet normal 0 -1 0
    outer loop
      vertex 12.5 -90 5
      vertex 15 -90 7.5
      vertex 12.5 -90 7.5
    endloop
  endfacet
  facet normal 0 -1 0
    outer loop
      vertex 12.5 -90 5
      vertex 15 -90 0
      vertex 15 -90 7.5
    endloop
  endfacet
  facet normal 0 -1 0
    outer loop
      vertex 15 -90 0
      vertex 12.5 -90 5
      vertex -15 -90 0
    endloop
  endfacet
  facet normal 0 0 -1
    outer loop
      vertex -15 -26 0
      vertex -4 -20 0
      vertex -4 -26 0
    endloop
  endfacet
  facet normal -0 0 -1
    outer loop
      vertex -4 -20 0
      vertex -15 -26 0
      vertex -15 -20 0
    endloop
  endfacet
  facet normal 0 0 -1
    outer loop
      vertex -15 -36 0
      vertex -4 -30 0
      vertex -4 -36 0
    endloop
  endfacet
  facet normal -0 0 -1
    outer loop
      vertex -4 -30 0
      vertex -15 -36 0
      vertex -15 -30 0
    endloop
  endfacet
  facet normal 0 0 -1
    outer loop
      vertex -15 -46 0
      vertex -4 -40 0
      vertex -4 -46 0
    endloop
  endfacet
  facet normal -0 0 -1
    outer loop
      vertex -4 -40 0
      vertex -15 -46 0
      vertex -15 -40 0
    endloop
  endfacet
  facet normal 0 0 -1
    outer loop
      vertex -15 -56 0
      vertex -4 -50 0
      vertex -4 -56 0
    endloop
  endfacet
  facet normal -0 0 -1
    outer loop
      vertex -4 -50 0
      vertex -15 -56 0
      vertex -15 -50 0
    endloop
  endfacet
  facet normal 0 0 -1
    outer loop
      vertex -15 -66 0
      vertex -4 -60 0
      vertex -4 -66 0
    endloop
  endfacet
  facet normal -0 0 -1
    outer loop
      vertex -4 -60 0
      vertex -15 -66 0
      vertex -15 -60 0
    endloop
  endfacet
  facet normal 0 0 -1
    outer loop
      vertex -15 -76 0
      vertex -4 -70 0
      vertex -4 -76 0
    endloop
  endfacet
  facet normal -0 0 -1
    outer loop
      vertex -4 -70 0
      vertex -15 -76 0
      vertex -15 -70 0
    endloop
  endfacet
  facet normal 0 0 -1
    outer loop
      vertex 15 -90 0
      vertex 4.05 -80 0
      vertex 15 -80 0
    endloop
  endfacet
  facet normal 0 0 -1
    outer loop
      vertex -4 -76 0
      vertex 4.05 -76 0
      vertex 4.05 -80 0
    endloop
  endfacet
  facet normal 0 0 -1
    outer loop
      vertex 4.05 -76 0
      vertex -4 -76 0
      vertex 4.05 -70 0
    endloop
  endfacet
  facet normal 0 0 -1
    outer loop
      vertex 4.05 -70 0
      vertex -4 -70 0
      vertex 4.05 -66 0
    endloop
  endfacet
  facet normal 0 0 -1
    outer loop
      vertex -4 -66 0
      vertex 4.05 -66 0
      vertex -4 -70 0
    endloop
  endfacet
  facet normal 0 0 -1
    outer loop
      vertex -4 -60 0
      vertex 4.05 -60 0
      vertex -4 -66 0
    endloop
  endfacet
  facet normal 0 0 -1
    outer loop
      vertex 4.05 -60 0
      vertex -4 -60 0
      vertex 4.05 -56 0
    endloop
  endfacet
  facet normal 0 0 -1
    outer loop
      vertex 4.05 -56 0
      vertex -4 -56 0
      vertex 4.05 -50 0
    endloop
  endfacet
  facet normal 0 0 -1
    outer loop
      vertex -4 -50 0
      vertex 4.05 -50 0
      vertex -4 -56 0
    endloop
  endfacet
  facet normal 0 0 -1
    outer loop
      vertex -4 -46 0
      vertex 4.05 -46 0
      vertex -4 -50 0
    endloop
  endfacet
  facet normal 0 0 -1
    outer loop
      vertex 4.05 -46 0
      vertex -4 -46 0
      vertex 4.05 -40 0
    endloop
  endfacet
  facet normal 0 0 -1
    outer loop
      vertex 4.05 -40 0
      vertex -4 -40 0
      vertex 4.05 -36 0
    endloop
  endfacet
  facet normal 0 0 -1
    outer loop
      vertex -4 -36 0
      vertex 4.05 -36 0
      vertex -4 -40 0
    endloop
  endfacet
  facet normal 0 0 -1
    outer loop
      vertex -4 -76 0
      vertex 4.05 -80 0
      vertex -4 -80 0
    endloop
  endfacet
  facet normal 0 0 -1
    outer loop
      vertex 15 -90 0
      vertex -4 -80 0
      vertex 4.05 -80 0
    endloop
  endfacet
  facet normal 0 0 -1
    outer loop
      vertex -15 -90 0
      vertex -4 -80 0
      vertex 15 -90 0
    endloop
  endfacet
  facet normal -0 0 -1
    outer loop
      vertex -4 -80 0
      vertex -15 -90 0
      vertex -15 -80 0
    endloop
  endfacet
  facet normal 0 0 -1
    outer loop
      vertex 4.05 -76 0
      vertex 15 -70 0
      vertex 15 -76 0
    endloop
  endfacet
  facet normal -0 0 -1
    outer loop
      vertex 15 -70 0
      vertex 4.05 -76 0
      vertex 4.05 -70 0
    endloop
  endfacet
  facet normal 0 0 -1
    outer loop
      vertex 4.05 -66 0
      vertex 15 -60 0
      vertex 15 -66 0
    endloop
  endfacet
  facet normal -0 0 -1
    outer loop
      vertex 15 -60 0
      vertex 4.05 -66 0
      vertex 4.05 -60 0
    endloop
  endfacet
  facet normal 0 0 -1
    outer loop
      vertex 4.05 -56 0
      vertex 15 -50 0
      vertex 15 -56 0
    endloop
  endfacet
  facet normal -0 0 -1
    outer loop
      vertex 15 -50 0
      vertex 4.05 -56 0
      vertex 4.05 -50 0
    endloop
  endfacet
  facet normal 0 0 -1
    outer loop
      vertex 4.05 -46 0
      vertex 15 -40 0
      vertex 15 -46 0
    endloop
  endfacet
  facet normal -0 0 -1
    outer loop
      vertex 15 -40 0
      vertex 4.05 -46 0
      vertex 4.05 -40 0
    endloop
  endfacet
  facet normal 0 0 -1
    outer loop
      vertex 4.05 -36 0
      vertex 15 -30 0
      vertex 15 -36 0
    endloop
  endfacet
  facet normal -0 0 -1
    outer loop
      vertex 15 -30 0
      vertex 4.05 -36 0
      vertex 4.05 -30 0
    endloop
  endfacet
  facet normal 0 0 -1
    outer loop
      vertex 4.05 -26 0
      vertex 15 -20 0
      vertex 15 -26 0
    endloop
  endfacet
  facet normal -0 0 -1
    outer loop
      vertex 15 -20 0
      vertex 4.05 -26 0
      vertex 4.05 -20 0
    endloop
  endfacet
  facet normal 0 0 -1
    outer loop
      vertex 4.05 -16 0
      vertex 15 0 0
      vertex 15 -16 0
    endloop
  endfacet
  facet normal -0 0 -1
    outer loop
      vertex 4.05 -70 0
      vertex -4 -76 0
      vertex -4 -70 0
    endloop
  endfacet
  facet normal 0 0 -1
    outer loop
      vertex 4.05 -66 0
      vertex -4 -66 0
      vertex 4.05 -60 0
    endloop
  endfacet
  facet normal 0 0 -1
    outer loop
      vertex -4 -56 0
      vertex 4.05 -56 0
      vertex -4 -60 0
    endloop
  endfacet
  facet normal 0 0 -1
    outer loop
      vertex 4.05 -50 0
      vertex -4 -50 0
      vertex 4.05 -46 0
    endloop
  endfacet
  facet normal 0 0 -1
    outer loop
      vertex -4 -40 0
      vertex 4.05 -40 0
      vertex -4 -46 0
    endloop
  endfacet
  facet normal 0 0 -1
    outer loop
      vertex 4.05 -36 0
      vertex -4 -36 0
      vertex 4.05 -30 0
    endloop
  endfacet
  facet normal 0 0 -1
    outer loop
      vertex -4 -30 0
      vertex 4.05 -30 0
      vertex -4 -36 0
    endloop
  endfacet
  facet normal 0 0 -1
    outer loop
      vertex 4.05 -30 0
      vertex -4 -30 0
      vertex 4.05 -26 0
    endloop
  endfacet
  facet normal 0 0 -1
    outer loop
      vertex -4 -26 0
      vertex 4.05 -26 0
      vertex -4 -30 0
    endloop
  endfacet
  facet normal 0 0 -1
    outer loop
      vertex 4.05 -26 0
      vertex -4 -26 0
      vertex 4.05 -20 0
    endloop
  endfacet
  facet normal 0 0 -1
    outer loop
      vertex -4 -20 0
      vertex 4.05 -20 0
      vertex -4 -26 0
    endloop
  endfacet
  facet normal 0 0 -1
    outer loop
      vertex 4.05 -20 0
      vertex -4 -20 0
      vertex 4.05 -16 0
    endloop
  endfacet
  facet normal 0 0 -1
    outer loop
      vertex -4 -16 0
      vertex 4.05 -16 0
      vertex -4 -20 0
    endloop
  endfacet
  facet normal 0 0 -1
    outer loop
      vertex 4.05 -16 0
      vertex -4 -16 0
      vertex 15 0 0
    endloop
  endfacet
  facet normal 0 0 -1
    outer loop
      vertex -15 0 0
      vertex -4 -16 0
      vertex -15 -16 0
    endloop
  endfacet
  facet normal 0 0 -1
    outer loop
      vertex -4 -16 0
      vertex -15 0 0
      vertex 15 0 0
    endloop
  endfacet
  facet normal -1 0 0
    outer loop
      vertex -15 -16 0
      vertex -15 -5 1.11022e-15
      vertex -15 0 0
    endloop
  endfacet
  facet normal -1 0 0
    outer loop
      vertex -15 -16 0
      vertex -15 -5 7.5
      vertex -15 -5 1.11022e-15
    endloop
  endfacet
  facet normal -1 -0 0
    outer loop
      vertex -15 -5 7.5
      vertex -15 -16 0
      vertex -15 -16 7.5
    endloop
  endfacet
  facet normal -1 0 0
    outer loop
      vertex -15 -90 0
      vertex -15 -80 7.5
      vertex -15 -80 0
    endloop
  endfacet
  facet normal -1 -0 0
    outer loop
      vertex -15 -80 7.5
      vertex -15 -90 0
      vertex -15 -90 7.5
    endloop
  endfacet
  facet normal -1 0 0
    outer loop
      vertex -15 -26 0
      vertex -15 -20 7.5
      vertex -15 -20 0
    endloop
  endfacet
  facet normal -1 -0 0
    outer loop
      vertex -15 -20 7.5
      vertex -15 -26 0
      vertex -15 -26 7.5
    endloop
  endfacet
  facet normal -1 0 0
    outer loop
      vertex -15 -36 0
      vertex -15 -30 7.5
      vertex -15 -30 0
    endloop
  endfacet
  facet normal -1 -0 0
    outer loop
      vertex -15 -30 7.5
      vertex -15 -36 0
      vertex -15 -36 7.5
    endloop
  endfacet
  facet normal -1 -1.58946e-07 0
    outer loop
      vertex -15 -46 0
      vertex -15 -40 7.5
      vertex -15 -40 0
    endloop
  endfacet
  facet normal -1 -1.58946e-07 0
    outer loop
      vertex -15 -40 7.5
      vertex -15 -46 0
      vertex -15 -46 7.5
    endloop
  endfacet
  facet normal -1 0 0
    outer loop
      vertex -15 -56 0
      vertex -15 -50 7.5
      vertex -15 -50 0
    endloop
  endfacet
  facet normal -1 -0 0
    outer loop
      vertex -15 -50 7.5
      vertex -15 -56 0
      vertex -15 -56 7.5
    endloop
  endfacet
  facet normal -1 0 0
    outer loop
      vertex -15 -66 0
      vertex -15 -60 7.5
      vertex -15 -60 0
    endloop
  endfacet
  facet normal -1 -0 0
    outer loop
      vertex -15 -60 7.5
      vertex -15 -66 0
      vertex -15 -66 7.5
    endloop
  endfacet
  facet normal -1 0 0
    outer loop
      vertex -15 -76 0
      vertex -15 -70 7.5
      vertex -15 -70 0
    endloop
  endfacet
  facet normal -1 -0 0
    outer loop
      vertex -15 -70 7.5
      vertex -15 -76 0
      vertex -15 -76 7.5
    endloop
  endfacet
  facet normal -0 0 1
    outer loop
      vertex 12.5 -80 7.5
      vertex 15 -90 7.5
      vertex 15 -80 7.5
    endloop
  endfacet
  facet normal 0 0 1
    outer loop
      vertex 15 -90 7.5
      vertex 12.5 -80 7.5
      vertex 12.5 -90 7.5
    endloop
  endfacet
  facet normal -0 0 1
    outer loop
      vertex 12.5 -70 7.5
      vertex 15 -76 7.5
      vertex 15 -70 7.5
    endloop
  endfacet
  facet normal 0 0 1
    outer loop
      vertex 15 -76 7.5
      vertex 12.5 -70 7.5
      vertex 12.5 -76 7.5
    endloop
  endfacet
  facet normal -0 0 1
    outer loop
      vertex 12.5 -60 7.5
      vertex 15 -66 7.5
      vertex 15 -60 7.5
    endloop
  endfacet
  facet normal 0 0 1
    outer loop
      vertex 15 -66 7.5
      vertex 12.5 -60 7.5
      vertex 12.5 -66 7.5
    endloop
  endfacet
  facet normal -0 0 1
    outer loop
      vertex 12.5 -50 7.5
      vertex 15 -56 7.5
      vertex 15 -50 7.5
    endloop
  endfacet
  facet normal 0 0 1
    outer loop
      vertex 15 -56 7.5
      vertex 12.5 -50 7.5
      vertex 12.5 -56 7.5
    endloop
  endfacet
  facet normal -0 0 1
    outer loop
      vertex 12.5 -40 7.5
      vertex 15 -46 7.5
      vertex 15 -40 7.5
    endloop
  endfacet
  facet normal 0 0 1
    outer loop
      vertex 15 -46 7.5
      vertex 12.5 -40 7.5
      vertex 12.5 -46 7.5
    endloop
  endfacet
  facet normal -0 0 1
    outer loop
      vertex 12.5 -30 7.5
      vertex 15 -36 7.5
      vertex 15 -30 7.5
    endloop
  endfacet
  facet normal 0 0 1
    outer loop
      vertex 15 -36 7.5
      vertex 12.5 -30 7.5
      vertex 12.5 -36 7.5
    endloop
  endfacet
  facet normal -0 0 1
    outer loop
      vertex 12.5 -20 7.5
      vertex 15 -26 7.5
      vertex 15 -20 7.5
    endloop
  endfacet
  facet normal 0 0 1
    outer loop
      vertex 15 -26 7.5
      vertex 12.5 -20 7.5
      vertex 12.5 -26 7.5
    endloop
  endfacet
  facet normal -0 0 1
    outer loop
      vertex 12.5 -5 7.5
      vertex 15 -16 7.5
      vertex 15 -5 7.5
    endloop
  endfacet
  facet normal 0 0 1
    outer loop
      vertex 15 -16 7.5
      vertex 12.5 -5 7.5
      vertex 12.5 -16 7.5
    endloop
  endfacet
  facet normal -1 0 0
    outer loop
      vertex 12.5 -90 5
      vertex 12.5 -80 7.5
      vertex 12.5 -80 5
    endloop
  endfacet
  facet normal -1 -0 0
    outer loop
      vertex 12.5 -80 7.5
      vertex 12.5 -90 5
      vertex 12.5 -90 7.5
    endloop
  endfacet
  facet normal -1 0 0
    outer loop
      vertex 12.5 -76 5
      vertex 12.5 -70 7.5
      vertex 12.5 -70 5
    endloop
  endfacet
  facet normal -1 -0 0
    outer loop
      vertex 12.5 -70 7.5
      vertex 12.5 -76 5
      vertex 12.5 -76 7.5
    endloop
  endfacet
  facet normal -1 0 0
    outer loop
      vertex 12.5 -66 5
      vertex 12.5 -60 7.5
      vertex 12.5 -60 5
    endloop
  endfacet
  facet normal -1 -0 0
    outer loop
      vertex 12.5 -60 7.5
      vertex 12.5 -66 5
      vertex 12.5 -66 7.5
    endloop
  endfacet
  facet normal -1 0 0
    outer loop
      vertex 12.5 -56 5
      vertex 12.5 -50 7.5
      vertex 12.5 -50 5
    endloop
  endfacet
  facet normal -1 -0 0
    outer loop
      vertex 12.5 -50 7.5
      vertex 12.5 -56 5
      vertex 12.5 -56 7.5
    endloop
  endfacet
  facet normal -1 0 0
    outer loop
      vertex 12.5 -46 5
      vertex 12.5 -40 7.5
      vertex 12.5 -40 5
    endloop
  endfacet
  facet normal -1 -0 0
    outer loop
      vertex 12.5 -40 7.5
      vertex 12.5 -46 5
      vertex 12.5 -46 7.5
    endloop
  endfacet
  facet normal -1 0 0
    outer loop
      vertex 12.5 -36 5
      vertex 12.5 -30 7.5
      vertex 12.5 -30 5
    endloop
  endfacet
  facet normal -1 -0 0
    outer loop
      vertex 12.5 -30 7.5
      vertex 12.5 -36 5
      vertex 12.5 -36 7.5
    endloop
  endfacet
  facet normal -1 0 0
    outer loop
      vertex 12.5 -26 5
      vertex 12.5 -20 7.5
      vertex 12.5 -20 5
    endloop
  endfacet
  facet normal -1 -0 0
    outer loop
      vertex 12.5 -20 7.5
      vertex 12.5 -26 5
      vertex 12.5 -26 7.5
    endloop
  endfacet
  facet normal -1 0 0
    outer loop
      vertex 12.5 -16 5
      vertex 12.5 -5 7.5
      vertex 12.5 -5 5
    endloop
  endfacet
  facet normal -1 -0 0
    outer loop
      vertex 12.5 -5 7.5
      vertex 12.5 -16 5
      vertex 12.5 -16 7.5
    endloop
  endfacet
  facet normal -0 0 1
    outer loop
      vertex -15 -80 7.5
      vertex -12.5 -90 7.5
      vertex -12.5 -80 7.5
    endloop
  endfacet
  facet normal 0 0 1
    outer loop
      vertex -12.5 -90 7.5
      vertex -15 -80 7.5
      vertex -15 -90 7.5
    endloop
  endfacet
  facet normal -0 0 1
    outer loop
      vertex -15 -70 7.5
      vertex -12.5 -76 7.5
      vertex -12.5 -70 7.5
    endloop
  endfacet
  facet normal 0 0 1
    outer loop
      vertex -12.5 -76 7.5
      vertex -15 -70 7.5
      vertex -15 -76 7.5
    endloop
  endfacet
  facet normal -0 0 1
    outer loop
      vertex -15 -60 7.5
      vertex -12.5 -66 7.5
      vertex -12.5 -60 7.5
    endloop
  endfacet
  facet normal 0 0 1
    outer loop
      vertex -12.5 -66 7.5
      vertex -15 -60 7.5
      vertex -15 -66 7.5
    endloop
  endfacet
  facet normal -0 0 1
    outer loop
      vertex -15 -50 7.5
      vertex -12.5 -56 7.5
      vertex -12.5 -50 7.5
    endloop
  endfacet
  facet normal 0 0 1
    outer loop
      vertex -12.5 -56 7.5
      vertex -15 -50 7.5
      vertex -15 -56 7.5
    endloop
  endfacet
  facet normal 0 0 1
    outer loop
      vertex -12.5 -40 7.5
      vertex -15 -46 7.5
      vertex -12.5 -46 7.5
    endloop
  endfacet
  facet normal 0 -0 1
    outer loop
      vertex -15 -46 7.5
      vertex -12.5 -40 7.5
      vertex -15 -40 7.5
    endloop
  endfacet
  facet normal -0 0 1
    outer loop
      vertex -15 -30 7.5
      vertex -12.5 -36 7.5
      vertex -12.5 -30 7.5
    endloop
  endfacet
  facet normal 0 0 1
    outer loop
      vertex -12.5 -36 7.5
      vertex -15 -30 7.5
      vertex -15 -36 7.5
    endloop
  endfacet
  facet normal -0 0 1
    outer loop
      vertex -15 -20 7.5
      vertex -12.5 -26 7.5
      vertex -12.5 -20 7.5
    endloop
  endfacet
  facet normal 0 0 1
    outer loop
      vertex -12.5 -26 7.5
      vertex -15 -20 7.5
      vertex -15 -26 7.5
    endloop
  endfacet
  facet normal -0 0 1
    outer loop
      vertex -15 -5 7.5
      vertex -12.5 -16 7.5
      vertex -12.5 -5 7.5
    endloop
  endfacet
  facet normal 0 0 1
    outer loop
      vertex -12.5 -16 7.5
      vertex -15 -5 7.5
      vertex -15 -16 7.5
    endloop
  endfacet
  facet normal 1 -0 0
    outer loop
      vertex -12.5 -90 7.5
      vertex -12.5 -80 5
      vertex -12.5 -80 7.5
    endloop
  endfacet
  facet normal 1 0 0
    outer loop
      vertex -12.5 -80 5
      vertex -12.5 -90 7.5
      vertex -12.5 -90 5
    endloop
  endfacet
  facet normal 1 -0 0
    outer loop
      vertex -12.5 -76 7.5
      vertex -12.5 -70 5
      vertex -12.5 -70 7.5
    endloop
  endfacet
  facet normal 1 0 0
    outer loop
      vertex -12.5 -70 5
      vertex -12.5 -76 7.5
      vertex -12.5 -76 5
    endloop
  endfacet
  facet normal 1 -0 0
    outer loop
      vertex -12.5 -66 7.5
      vertex -12.5 -60 5
      vertex -12.5 -60 7.5
    endloop
  endfacet
  facet normal 1 0 0
    outer loop
      vertex -12.5 -60 5
      vertex -12.5 -66 7.5
      vertex -12.5 -66 5
    endloop
  endfacet
  facet normal 1 -0 0
    outer loop
      vertex -12.5 -56 7.5
      vertex -12.5 -50 5
      vertex -12.5 -50 7.5
    endloop
  endfacet
  facet normal 1 0 0
    outer loop
      vertex -12.5 -50 5
      vertex -12.5 -56 7.5
      vertex -12.5 -56 5
    endloop
  endfacet
  facet normal 1 1.58946e-07 0
    outer loop
      vertex -12.5 -46 7.5
      vertex -12.5 -40 5
      vertex -12.5 -40 7.5
    endloop
  endfacet
  facet normal 1 1.58946e-07 0
    outer loop
      vertex -12.5 -40 5
      vertex -12.5 -46 7.5
      vertex -12.5 -46 5
    endloop
  endfacet
  facet normal 1 -0 0
    outer loop
      vertex -12.5 -36 7.5
      vertex -12.5 -30 5
      vertex -12.5 -30 7.5
    endloop
  endfacet
  facet normal 1 0 0
    outer loop
      vertex -12.5 -30 5
      vertex -12.5 -36 7.5
      vertex -12.5 -36 5
    endloop
  endfacet
  facet normal 1 -0 0
    outer loop
      vertex -12.5 -26 7.5
      vertex -12.5 -20 5
      vertex -12.5 -20 7.5
    endloop
  endfacet
  facet normal 1 0 0
    outer loop
      vertex -12.5 -20 5
      vertex -12.5 -26 7.5
      vertex -12.5 -26 5
    endloop
  endfacet
  facet normal 1 -0 0
    outer loop
      vertex -12.5 -16 7.5
      vertex -12.5 -5 5
      vertex -12.5 -5 7.5
    endloop
  endfacet
  facet normal 1 0 0
    outer loop
      vertex -12.5 -5 5
      vertex -12.5 -16 7.5
      vertex -12.5 -16 5
    endloop
  endfacet
  facet normal 1 -0 0
    outer loop
      vertex 4.05 -80 5
      vertex 4.05 -76 0
      vertex 4.05 -76 5
    endloop
  endfacet
  facet normal 1 0 0
    outer loop
      vertex 4.05 -76 0
      vertex 4.05 -80 5
      vertex 4.05 -80 0
    endloop
  endfacet
  facet normal 0 -1 0
    outer loop
      vertex 4.05 -76 5
      vertex 4.05 -76 0
      vertex 12.5 -76 5
    endloop
  endfacet
  facet normal 0 -1 0
    outer loop
      vertex 12.5 -76 5
      vertex 15 -76 7.5
      vertex 12.5 -76 7.5
    endloop
  endfacet
  facet normal 0 -1 0
    outer loop
      vertex 12.5 -76 5
      vertex 15 -76 0
      vertex 15 -76 7.5
    endloop
  endfacet
  facet normal 0 -1 0
    outer loop
      vertex 15 -76 0
      vertex 12.5 -76 5
      vertex 4.05 -76 0
    endloop
  endfacet
  facet normal 0 1 0
    outer loop
      vertex 15 -80 7.5
      vertex 12.5 -80 5
      vertex 12.5 -80 7.5
    endloop
  endfacet
  facet normal 0 1 -0
    outer loop
      vertex 15 -80 0
      vertex 12.5 -80 5
      vertex 15 -80 7.5
    endloop
  endfacet
  facet normal 0 1 0
    outer loop
      vertex 4.05 -80 0
      vertex 12.5 -80 5
      vertex 15 -80 0
    endloop
  endfacet
  facet normal 0 1 0
    outer loop
      vertex 12.5 -80 5
      vertex 4.05 -80 0
      vertex 4.05 -80 5
    endloop
  endfacet
  facet normal -1 0 0
    outer loop
      vertex -4 -80 0
      vertex -4 -76 5
      vertex -4 -76 0
    endloop
  endfacet
  facet normal -1 -0 0
    outer loop
      vertex -4 -76 5
      vertex -4 -80 0
      vertex -4 -80 5
    endloop
  endfacet
  facet normal 0 1 0
    outer loop
      vertex -4 -80 5
      vertex -4 -80 0
      vertex -12.5 -80 5
    endloop
  endfacet
  facet normal 0 1 -0
    outer loop
      vertex -12.5 -80 5
      vertex -15 -80 7.5
      vertex -12.5 -80 7.5
    endloop
  endfacet
  facet normal 0 1 0
    outer loop
      vertex -12.5 -80 5
      vertex -15 -80 0
      vertex -15 -80 7.5
    endloop
  endfacet
  facet normal 0 1 0
    outer loop
      vertex -15 -80 0
      vertex -12.5 -80 5
      vertex -4 -80 0
    endloop
  endfacet
  facet normal 0 -1 0
    outer loop
      vertex -15 -76 7.5
      vertex -12.5 -76 5
      vertex -12.5 -76 7.5
    endloop
  endfacet
  facet normal 0 -1 0
    outer loop
      vertex -15 -76 0
      vertex -12.5 -76 5
      vertex -15 -76 7.5
    endloop
  endfacet
  facet normal 0 -1 0
    outer loop
      vertex -4 -76 0
      vertex -12.5 -76 5
      vertex -15 -76 0
    endloop
  endfacet
  facet normal 0 -1 0
    outer loop
      vertex -12.5 -76 5
      vertex -4 -76 0
      vertex -4 -76 5
    endloop
  endfacet
  facet normal 1 -0 0
    outer loop
      vertex 4.05 -70 5
      vertex 4.05 -66 0
      vertex 4.05 -66 5
    endloop
  endfacet
  facet normal 1 0 0
    outer loop
      vertex 4.05 -66 0
      vertex 4.05 -70 5
      vertex 4.05 -70 0
    endloop
  endfacet
  facet normal 0 1 0
    outer loop
      vertex 15 -70 7.5
      vertex 12.5 -70 5
      vertex 12.5 -70 7.5
    endloop
  endfacet
  facet normal 0 1 -0
    outer loop
      vertex 15 -70 0
      vertex 12.5 -70 5
      vertex 15 -70 7.5
    endloop
  endfacet
  facet normal 0 1 0
    outer loop
      vertex 4.05 -70 0
      vertex 12.5 -70 5
      vertex 15 -70 0
    endloop
  endfacet
  facet normal 0 1 0
    outer loop
      vertex 12.5 -70 5
      vertex 4.05 -70 0
      vertex 4.05 -70 5
    endloop
  endfacet
  facet normal 0 -1 0
    outer loop
      vertex 4.05 -66 5
      vertex 4.05 -66 0
      vertex 12.5 -66 5
    endloop
  endfacet
  facet normal 0 -1 0
    outer loop
      vertex 12.5 -66 5
      vertex 15 -66 7.5
      vertex 12.5 -66 7.5
    endloop
  endfacet
  facet normal 0 -1 0
    outer loop
      vertex 12.5 -66 5
      vertex 15 -66 0
      vertex 15 -66 7.5
    endloop
  endfacet
  facet normal 0 -1 0
    outer loop
      vertex 15 -66 0
      vertex 12.5 -66 5
      vertex 4.05 -66 0
    endloop
  endfacet
  facet normal -1 0 0
    outer loop
      vertex -4 -70 0
      vertex -4 -66 5
      vertex -4 -66 0
    endloop
  endfacet
  facet normal -1 -0 0
    outer loop
      vertex -4 -66 5
      vertex -4 -70 0
      vertex -4 -70 5
    endloop
  endfacet
  facet normal 0 1 0
    outer loop
      vertex -4 -70 5
      vertex -4 -70 0
      vertex -12.5 -70 5
    endloop
  endfacet
  facet normal 0 1 -0
    outer loop
      vertex -12.5 -70 5
      vertex -15 -70 7.5
      vertex -12.5 -70 7.5
    endloop
  endfacet
  facet normal 0 1 0
    outer loop
      vertex -12.5 -70 5
      vertex -15 -70 0
      vertex -15 -70 7.5
    endloop
  endfacet
  facet normal 0 1 0
    outer loop
      vertex -15 -70 0
      vertex -12.5 -70 5
      vertex -4 -70 0
    endloop
  endfacet
  facet normal 0 -1 0
    outer loop
      vertex -15 -66 7.5
      vertex -12.5 -66 5
      vertex -12.5 -66 7.5
    endloop
  endfacet
  facet normal 0 -1 0
    outer loop
      vertex -15 -66 0
      vertex -12.5 -66 5
      vertex -15 -66 7.5
    endloop
  endfacet
  facet normal 0 -1 0
    outer loop
      vertex -4 -66 0
      vertex -12.5 -66 5
      vertex -15 -66 0
    endloop
  endfacet
  facet normal 0 -1 0
    outer loop
      vertex -12.5 -66 5
      vertex -4 -66 0
      vertex -4 -66 5
    endloop
  endfacet
  facet normal 1 -0 0
    outer loop
      vertex 4.05 -60 5
      vertex 4.05 -56 0
      vertex 4.05 -56 5
    endloop
  endfacet
  facet normal 1 0 0
    outer loop
      vertex 4.05 -56 0
      vertex 4.05 -60 5
      vertex 4.05 -60 0
    endloop
  endfacet
  facet normal 0 -1 0
    outer loop
      vertex 4.05 -56 5
      vertex 4.05 -56 0
      vertex 12.5 -56 5
    endloop
  endfacet
  facet normal 0 -1 0
    outer loop
      vertex 12.5 -56 5
      vertex 15 -56 7.5
      vertex 12.5 -56 7.5
    endloop
  endfacet
  facet normal 0 -1 0
    outer loop
      vertex 12.5 -56 5
      vertex 15 -56 0
      vertex 15 -56 7.5
    endloop
  endfacet
  facet normal 0 -1 0
    outer loop
      vertex 15 -56 0
      vertex 12.5 -56 5
      vertex 4.05 -56 0
    endloop
  endfacet
  facet normal 0 1 0
    outer loop
      vertex 15 -60 7.5
      vertex 12.5 -60 5
      vertex 12.5 -60 7.5
    endloop
  endfacet
  facet normal 0 1 -0
    outer loop
      vertex 15 -60 0
      vertex 12.5 -60 5
      vertex 15 -60 7.5
    endloop
  endfacet
  facet normal 0 1 0
    outer loop
      vertex 4.05 -60 0
      vertex 12.5 -60 5
      vertex 15 -60 0
    endloop
  endfacet
  facet normal 0 1 0
    outer loop
      vertex 12.5 -60 5
      vertex 4.05 -60 0
      vertex 4.05 -60 5
    endloop
  endfacet
  facet normal -1 0 0
    outer loop
      vertex -4 -60 0
      vertex -4 -56 5
      vertex -4 -56 0
    endloop
  endfacet
  facet normal -1 -0 0
    outer loop
      vertex -4 -56 5
      vertex -4 -60 0
      vertex -4 -60 5
    endloop
  endfacet
  facet normal 0 -1 0
    outer loop
      vertex -15 -56 7.5
      vertex -12.5 -56 5
      vertex -12.5 -56 7.5
    endloop
  endfacet
  facet normal 0 -1 0
    outer loop
      vertex -15 -56 0
      vertex -12.5 -56 5
      vertex -15 -56 7.5
    endloop
  endfacet
  facet normal 0 -1 0
    outer loop
      vertex -4 -56 0
      vertex -12.5 -56 5
      vertex -15 -56 0
    endloop
  endfacet
  facet normal 0 -1 0
    outer loop
      vertex -12.5 -56 5
      vertex -4 -56 0
      vertex -4 -56 5
    endloop
  endfacet
  facet normal 0 1 0
    outer loop
      vertex -4 -60 5
      vertex -4 -60 0
      vertex -12.5 -60 5
    endloop
  endfacet
  facet normal 0 1 -0
    outer loop
      vertex -12.5 -60 5
      vertex -15 -60 7.5
      vertex -12.5 -60 7.5
    endloop
  endfacet
  facet normal 0 1 0
    outer loop
      vertex -12.5 -60 5
      vertex -15 -60 0
      vertex -15 -60 7.5
    endloop
  endfacet
  facet normal 0 1 0
    outer loop
      vertex -15 -60 0
      vertex -12.5 -60 5
      vertex -4 -60 0
    endloop
  endfacet
  facet normal 1 -0 0
    outer loop
      vertex 4.05 -50 5
      vertex 4.05 -46 0
      vertex 4.05 -46 5
    endloop
  endfacet
  facet normal 1 0 0
    outer loop
      vertex 4.05 -46 0
      vertex 4.05 -50 5
      vertex 4.05 -50 0
    endloop
  endfacet
  facet normal 0 -1 0
    outer loop
      vertex 4.05 -46 5
      vertex 4.05 -46 0
      vertex 12.5 -46 5
    endloop
  endfacet
  facet normal 0 -1 0
    outer loop
      vertex 12.5 -46 5
      vertex 15 -46 7.5
      vertex 12.5 -46 7.5
    endloop
  endfacet
  facet normal 0 -1 0
    outer loop
      vertex 12.5 -46 5
      vertex 15 -46 0
      vertex 15 -46 7.5
    endloop
  endfacet
  facet normal 0 -1 0
    outer loop
      vertex 15 -46 0
      vertex 12.5 -46 5
      vertex 4.05 -46 0
    endloop
  endfacet
  facet normal 0 1 0
    outer loop
      vertex 15 -50 7.5
      vertex 12.5 -50 5
      vertex 12.5 -50 7.5
    endloop
  endfacet
  facet normal 0 1 -0
    outer loop
      vertex 15 -50 0
      vertex 12.5 -50 5
      vertex 15 -50 7.5
    endloop
  endfacet
  facet normal 0 1 0
    outer loop
      vertex 4.05 -50 0
      vertex 12.5 -50 5
      vertex 15 -50 0
    endloop
  endfacet
  facet normal 0 1 0
    outer loop
      vertex 12.5 -50 5
      vertex 4.05 -50 0
      vertex 4.05 -50 5
    endloop
  endfacet
  facet normal -1 0 0
    outer loop
      vertex -4 -50 0
      vertex -4 -46 5
      vertex -4 -46 0
    endloop
  endfacet
  facet normal -1 -0 0
    outer loop
      vertex -4 -46 5
      vertex -4 -50 0
      vertex -4 -50 5
    endloop
  endfacet
  facet normal 0 -1 0
    outer loop
      vertex -15 -46 7.5
      vertex -12.5 -46 5
      vertex -12.5 -46 7.5
    endloop
  endfacet
  facet normal 0 -1 0
    outer loop
      vertex -15 -46 0
      vertex -12.5 -46 5
      vertex -15 -46 7.5
    endloop
  endfacet
  facet normal 0 -1 0
    outer loop
      vertex -4 -46 0
      vertex -12.5 -46 5
      vertex -15 -46 0
    endloop
  endfacet
  facet normal 0 -1 0
    outer loop
      vertex -12.5 -46 5
      vertex -4 -46 0
      vertex -4 -46 5
    endloop
  endfacet
  facet normal 0 1 0
    outer loop
      vertex -4 -50 5
      vertex -4 -50 0
      vertex -12.5 -50 5
    endloop
  endfacet
  facet normal 0 1 -0
    outer loop
      vertex -12.5 -50 5
      vertex -15 -50 7.5
      vertex -12.5 -50 7.5
    endloop
  endfacet
  facet normal 0 1 0
    outer loop
      vertex -12.5 -50 5
      vertex -15 -50 0
      vertex -15 -50 7.5
    endloop
  endfacet
  facet normal 0 1 0
    outer loop
      vertex -15 -50 0
      vertex -12.5 -50 5
      vertex -4 -50 0
    endloop
  endfacet
  facet normal 1 -0 0
    outer loop
      vertex 4.05 -40 5
      vertex 4.05 -36 0
      vertex 4.05 -36 5
    endloop
  endfacet
  facet normal 1 0 0
    outer loop
      vertex 4.05 -36 0
      vertex 4.05 -40 5
      vertex 4.05 -40 0
    endloop
  endfacet
  facet normal 0 1 0
    outer loop
      vertex 15 -40 7.5
      vertex 12.5 -40 5
      vertex 12.5 -40 7.5
    endloop
  endfacet
  facet normal 0 1 -0
    outer loop
      vertex 15 -40 0
      vertex 12.5 -40 5
      vertex 15 -40 7.5
    endloop
  endfacet
  facet normal 0 1 0
    outer loop
      vertex 4.05 -40 0
      vertex 12.5 -40 5
      vertex 15 -40 0
    endloop
  endfacet
  facet normal 0 1 0
    outer loop
      vertex 12.5 -40 5
      vertex 4.05 -40 0
      vertex 4.05 -40 5
    endloop
  endfacet
  facet normal 0 -1 0
    outer loop
      vertex 4.05 -36 5
      vertex 4.05 -36 0
      vertex 12.5 -36 5
    endloop
  endfacet
  facet normal 0 -1 0
    outer loop
      vertex 12.5 -36 5
      vertex 15 -36 7.5
      vertex 12.5 -36 7.5
    endloop
  endfacet
  facet normal 0 -1 0
    outer loop
      vertex 12.5 -36 5
      vertex 15 -36 0
      vertex 15 -36 7.5
    endloop
  endfacet
  facet normal 0 -1 0
    outer loop
      vertex 15 -36 0
      vertex 12.5 -36 5
      vertex 4.05 -36 0
    endloop
  endfacet
  facet normal -1 0 0
    outer loop
      vertex -4 -40 0
      vertex -4 -36 5
      vertex -4 -36 0
    endloop
  endfacet
  facet normal -1 -0 0
    outer loop
      vertex -4 -36 5
      vertex -4 -40 0
      vertex -4 -40 5
    endloop
  endfacet
  facet normal 0 -1 0
    outer loop
      vertex -15 -36 7.5
      vertex -12.5 -36 5
      vertex -12.5 -36 7.5
    endloop
  endfacet
  facet normal 0 -1 0
    outer loop
      vertex -15 -36 0
      vertex -12.5 -36 5
      vertex -15 -36 7.5
    endloop
  endfacet
  facet normal 0 -1 0
    outer loop
      vertex -4 -36 0
      vertex -12.5 -36 5
      vertex -15 -36 0
    endloop
  endfacet
  facet normal 0 -1 0
    outer loop
      vertex -12.5 -36 5
      vertex -4 -36 0
      vertex -4 -36 5
    endloop
  endfacet
  facet normal 0 1 0
    outer loop
      vertex -4 -40 5
      vertex -4 -40 0
      vertex -12.5 -40 5
    endloop
  endfacet
  facet normal 0 1 -0
    outer loop
      vertex -12.5 -40 5
      vertex -15 -40 7.5
      vertex -12.5 -40 7.5
    endloop
  endfacet
  facet normal 0 1 0
    outer loop
      vertex -12.5 -40 5
      vertex -15 -40 0
      vertex -15 -40 7.5
    endloop
  endfacet
  facet normal 0 1 0
    outer loop
      vertex -15 -40 0
      vertex -12.5 -40 5
      vertex -4 -40 0
    endloop
  endfacet
  facet normal 1 -0 0
    outer loop
      vertex 4.05 -30 5
      vertex 4.05 -26 0
      vertex 4.05 -26 5
    endloop
  endfacet
  facet normal 1 0 0
    outer loop
      vertex 4.05 -26 0
      vertex 4.05 -30 5
      vertex 4.05 -30 0
    endloop
  endfacet
  facet normal 0 1 0
    outer loop
      vertex 15 -30 7.5
      vertex 12.5 -30 5
      vertex 12.5 -30 7.5
    endloop
  endfacet
  facet normal 0 1 -0
    outer loop
      vertex 15 -30 0
      vertex 12.5 -30 5
      vertex 15 -30 7.5
    endloop
  endfacet
  facet normal 0 1 0
    outer loop
      vertex 4.05 -30 0
      vertex 12.5 -30 5
      vertex 15 -30 0
    endloop
  endfacet
  facet normal 0 1 0
    outer loop
      vertex 12.5 -30 5
      vertex 4.05 -30 0
      vertex 4.05 -30 5
    endloop
  endfacet
  facet normal 0 -1 0
    outer loop
      vertex 4.05 -26 5
      vertex 4.05 -26 0
      vertex 12.5 -26 5
    endloop
  endfacet
  facet normal 0 -1 0
    outer loop
      vertex 12.5 -26 5
      vertex 15 -26 7.5
      vertex 12.5 -26 7.5
    endloop
  endfacet
  facet normal 0 -1 0
    outer loop
      vertex 12.5 -26 5
      vertex 15 -26 0
      vertex 15 -26 7.5
    endloop
  endfacet
  facet normal 0 -1 0
    outer loop
      vertex 15 -26 0
      vertex 12.5 -26 5
      vertex 4.05 -26 0
    endloop
  endfacet
  facet normal -1 0 0
    outer loop
      vertex -4 -30 0
      vertex -4 -26 5
      vertex -4 -26 0
    endloop
  endfacet
  facet normal -1 -0 0
    outer loop
      vertex -4 -26 5
      vertex -4 -30 0
      vertex -4 -30 5
    endloop
  endfacet
  facet normal 0 -1 0
    outer loop
      vertex -15 -26 7.5
      vertex -12.5 -26 5
      vertex -12.5 -26 7.5
    endloop
  endfacet
  facet normal 0 -1 0
    outer loop
      vertex -15 -26 0
      vertex -12.5 -26 5
      vertex -15 -26 7.5
    endloop
  endfacet
  facet normal 0 -1 0
    outer loop
      vertex -4 -26 0
      vertex -12.5 -26 5
      vertex -15 -26 0
    endloop
  endfacet
  facet normal 0 -1 0
    outer loop
      vertex -12.5 -26 5
      vertex -4 -26 0
      vertex -4 -26 5
    endloop
  endfacet
  facet normal 0 1 0
    outer loop
      vertex -4 -30 5
      vertex -4 -30 0
      vertex -12.5 -30 5
    endloop
  endfacet
  facet normal 0 1 -0
    outer loop
      vertex -12.5 -30 5
      vertex -15 -30 7.5
      vertex -12.5 -30 7.5
    endloop
  endfacet
  facet normal 0 1 0
    outer loop
      vertex -12.5 -30 5
      vertex -15 -30 0
      vertex -15 -30 7.5
    endloop
  endfacet
  facet normal 0 1 0
    outer loop
      vertex -15 -30 0
      vertex -12.5 -30 5
      vertex -4 -30 0
    endloop
  endfacet
  facet normal 1 -0 0
    outer loop
      vertex 4.05 -20 5
      vertex 4.05 -16 0
      vertex 4.05 -16 5
    endloop
  endfacet
  facet normal 1 0 0
    outer loop
      vertex 4.05 -16 0
      vertex 4.05 -20 5
      vertex 4.05 -20 0
    endloop
  endfacet
  facet normal 0 1 0
    outer loop
      vertex 15 -20 7.5
      vertex 12.5 -20 5
      vertex 12.5 -20 7.5
    endloop
  endfacet
  facet normal 0 1 -0
    outer loop
      vertex 15 -20 0
      vertex 12.5 -20 5
      vertex 15 -20 7.5
    endloop
  endfacet
  facet normal 0 1 0
    outer loop
      vertex 4.05 -20 0
      vertex 12.5 -20 5
      vertex 15 -20 0
    endloop
  endfacet
  facet normal 0 1 0
    outer loop
      vertex 12.5 -20 5
      vertex 4.05 -20 0
      vertex 4.05 -20 5
    endloop
  endfacet
  facet normal 0 -1 0
    outer loop
      vertex 4.05 -16 5
      vertex 4.05 -16 0
      vertex 12.5 -16 5
    endloop
  endfacet
  facet normal 0 -1 0
    outer loop
      vertex 12.5 -16 5
      vertex 15 -16 7.5
      vertex 12.5 -16 7.5
    endloop
  endfacet
  facet normal 0 -1 0
    outer loop
      vertex 12.5 -16 5
      vertex 15 -16 0
      vertex 15 -16 7.5
    endloop
  endfacet
  facet normal 0 -1 0
    outer loop
      vertex 15 -16 0
      vertex 12.5 -16 5
      vertex 4.05 -16 0
    endloop
  endfacet
  facet normal -1 0 0
    outer loop
      vertex -4 -20 0
      vertex -4 -16 5
      vertex -4 -16 0
    endloop
  endfacet
  facet normal -1 -0 0
    outer loop
      vertex -4 -16 5
      vertex -4 -20 0
      vertex -4 -20 5
    endloop
  endfacet
  facet normal 0 -1 0
    outer loop
      vertex -15 -16 7.5
      vertex -12.5 -16 5
      vertex -12.5 -16 7.5
    endloop
  endfacet
  facet normal 0 -1 0
    outer loop
      vertex -15 -16 0
      vertex -12.5 -16 5
      vertex -15 -16 7.5
    endloop
  endfacet
  facet normal 0 -1 0
    outer loop
      vertex -4 -16 0
      vertex -12.5 -16 5
      vertex -15 -16 0
    endloop
  endfacet
  facet normal 0 -1 0
    outer loop
      vertex -12.5 -16 5
      vertex -4 -16 0
      vertex -4 -16 5
    endloop
  endfacet
  facet normal 0 1 0
    outer loop
      vertex -4 -20 5
      vertex -4 -20 0
      vertex -12.5 -20 5
    endloop
  endfacet
  facet normal 0 1 -0
    outer loop
      vertex -12.5 -20 5
      vertex -15 -20 7.5
      vertex -12.5 -20 7.5
    endloop
  endfacet
  facet normal 0 1 0
    outer loop
      vertex -12.5 -20 5
      vertex -15 -20 0
      vertex -15 -20 7.5
    endloop
  endfacet
  facet normal 0 1 0
    outer loop
      vertex -15 -20 0
      vertex -12.5 -20 5
      vertex -4 -20 0
    endloop
  endfacet
endsolid OpenSCAD_Model
